/* XPM */
static char * emacs_48_xpm[] = {
"48 48 822 2",
"  	c None",
". 	c #5651AC",
"+ 	c #5551AC",
"@ 	c #5651AB",
"# 	c #5652AB",
"$ 	c #5853AC",
"% 	c #5955AC",
"& 	c #5A55AD",
"* 	c #5A56AD",
"= 	c #5955AD",
"- 	c #5854AC",
"; 	c #5652AC",
"> 	c #5752AA",
", 	c #5B56AC",
"' 	c #635EB0",
") 	c #6C68B5",
"! 	c #7470B9",
"~ 	c #7875BB",
"{ 	c #7B78BC",
"] 	c #7D7ABD",
"^ 	c #7D7ABE",
"/ 	c #7B78BD",
"( 	c #6966B4",
"_ 	c #5D59AF",
": 	c #5752AB",
"< 	c #5854AA",
"[ 	c #5E5AAD",
"} 	c #6A67B3",
"| 	c #7673B9",
"1 	c #817FBF",
"2 	c #8B88C4",
"3 	c #9290C8",
"4 	c #9895CA",
"5 	c #9B99CC",
"6 	c #9E9CCD",
"7 	c #9F9DCE",
"8 	c #9F9CCE",
"9 	c #9C99CC",
"0 	c #9592C9",
"a 	c #8A87C4",
"b 	c #7A77BC",
"c 	c #6763B3",
"d 	c #5753AA",
"e 	c #5D59AD",
"f 	c #6864B2",
"g 	c #7471B7",
"h 	c #817EBE",
"i 	c #8C8AC4",
"j 	c #9593C8",
"k 	c #A09ECE",
"l 	c #A5A2D0",
"m 	c #A7A6D2",
"n 	c #AAA8D3",
"o 	c #ACAAD4",
"p 	c #ADABD5",
"q 	c #A7A4D2",
"r 	c #9D9BCD",
"s 	c #8F8CC6",
"t 	c #625EB1",
"u 	c #5753AB",
"v 	c #5955AA",
"w 	c #615EAE",
"x 	c #6D6AB4",
"y 	c #7975BA",
"z 	c #8582C0",
"A 	c #908DC5",
"B 	c #9795C9",
"C 	c #9D9BCC",
"D 	c #A2A0CF",
"E 	c #A6A4D1",
"F 	c #AFADD6",
"G 	c #B0AFD6",
"H 	c #B2B0D7",
"I 	c #B1B0D7",
"J 	c #B1AFD6",
"K 	c #B0AED6",
"L 	c #A7A5D2",
"M 	c #9A97CB",
"N 	c #8683C1",
"O 	c #6D69B5",
"P 	c #5753A9",
"Q 	c #5A56AA",
"R 	c #6460AF",
"S 	c #6E6BB4",
"T 	c #7976BA",
"U 	c #8582BF",
"V 	c #8F8CC5",
"W 	c #9794C9",
"X 	c #A3A1CF",
"Y 	c #A8A5D2",
"Z 	c #ABA9D4",
"` 	c #AEADD6",
" .	c #B3B1D7",
"..	c #B4B3D8",
"+.	c #B5B3D8",
"@.	c #B6B3D8",
"#.	c #B3B2D8",
"$.	c #ADACD4",
"%.	c #A9A7D2",
"&.	c #9E9BCD",
"*.	c #8C89C4",
"=.	c #7470B8",
"-.	c #5D58AD",
";.	c #5853A9",
">.	c #6C68B3",
",.	c #7672B8",
"'.	c #807EBD",
").	c #8A88C3",
"!.	c #9491C8",
"~.	c #A8A5D1",
"{.	c #B4B2D8",
"].	c #B6B6D9",
"^.	c #B8B7DA",
"/.	c #B9B7DA",
"(.	c #B8B6DA",
"_.	c #B7B6DA",
":.	c #B6B4D9",
"<.	c #B3B0D8",
"[.	c #AFADD5",
"}.	c #AAA9D2",
"|.	c #A4A2D0",
"1.	c #8A87C3",
"2.	c #7471B8",
"3.	c #5C58AD",
"4.	c #5854A9",
"5.	c #605CAD",
"6.	c #6865B1",
"7.	c #716EB6",
"8.	c #7A78BB",
"9.	c #908DC6",
"0.	c #A5A4D1",
"a.	c #C9C8E2",
"b.	c #E0DFEC",
"c.	c #CFCFE4",
"d.	c #BAB9D9",
"e.	c #BAB8DB",
"f.	c #B9B8DB",
"g.	c #B8B7DB",
"h.	c #B7B5DA",
"i.	c #ABA9D3",
"j.	c #A5A3D0",
"k.	c #9491C7",
"l.	c #8480BF",
"m.	c #6E6AB5",
"n.	c #5955AB",
"o.	c #5955A9",
"p.	c #5E5AAB",
"q.	c #6461AF",
"r.	c #6B68B4",
"s.	c #7F7CBD",
"t.	c #9391C8",
"u.	c #9C9ACC",
"v.	c #CBCAE3",
"w.	c #F3F3F4",
"x.	c #F6F6F8",
"y.	c #F7F7F9",
"z.	c #F5F5F7",
"A.	c #EEEEF2",
"B.	c #CECDE3",
"C.	c #B8B7D9",
"D.	c #AAA9D3",
"E.	c #8A88C2",
"F.	c #6561B0",
"G.	c #5855A9",
"H.	c #5B57AA",
"I.	c #605DAD",
"J.	c #6663B1",
"K.	c #7775B9",
"L.	c #8380BF",
"M.	c #8D8BC4",
"N.	c #9694C9",
"O.	c #AEACD5",
"P.	c #E8E7EF",
"Q.	c #F6F6F7",
"R.	c #FBFBFD",
"S.	c #FAFAFC",
"T.	c #F8F8FA",
"U.	c #F3F3F6",
"V.	c #E0E0EB",
"W.	c #BDBCDB",
"X.	c #B7B6D9",
"Y.	c #B6B5D9",
"Z.	c #AEADD5",
"`.	c #9B99CB",
" +	c #9390C7",
".+	c #8986C1",
"++	c #9693C7",
"@+	c #6B68B1",
"#+	c #5C58AB",
"$+	c #5C59AC",
"%+	c #6764B1",
"&+	c #6E6BB5",
"*+	c #7B78BA",
"=+	c #8F8DC5",
"-+	c #A3A2CF",
";+	c #A8A6D1",
">+	c #F0F0F4",
",+	c #FAFAFB",
"'+	c #F9F9FB",
")+	c #F6F6F9",
"!+	c #EDEDF2",
"~+	c #C9C8E0",
"{+	c #B3B2D6",
"]+	c #A7A5D1",
"^+	c #A09ECD",
"/+	c #9896CA",
"(+	c #A8A7D1",
"_+	c #7A77B6",
":+	c #5F5BAC",
"<+	c #5E5AAC",
"[+	c #625FAE",
"}+	c #6864B1",
"|+	c #706DB5",
"1+	c #7C79BB",
"2+	c #8684C1",
"3+	c #C3C2DE",
"4+	c #F5F5F6",
"5+	c #FAFAF9",
"6+	c #EAEAF0",
"7+	c #C0BFDB",
"8+	c #EEEEF3",
"9+	c #FBFAFD",
"0+	c #F9F9FC",
"a+	c #FAF9FC",
"b+	c #F8F8FB",
"c+	c #D8D8E8",
"d+	c #B1AFD5",
"e+	c #A8A6D2",
"f+	c #A2A1CF",
"g+	c #9B9ACB",
"h+	c #9391C7",
"i+	c #807DBD",
"j+	c #9290C5",
"k+	c #A6A4CC",
"l+	c #5E5BAA",
"m+	c #5956AA",
"n+	c #7C7ABC",
"o+	c #9E9CCC",
"p+	c #F2F2F3",
"q+	c #F8F8F8",
"r+	c #FEFEFE",
"s+	c #FBFBFB",
"t+	c #EFEFF2",
"u+	c #F5F4F9",
"v+	c #CFCEE3",
"w+	c #DADAE9",
"x+	c #E7E7EF",
"y+	c #B7B6D7",
"z+	c #9C9ACB",
"A+	c #8E8CC5",
"B+	c #8482BF",
"C+	c #7A77BA",
"D+	c #8E8CC3",
"E+	c #C9C8DD",
"F+	c #605DA9",
"G+	c #5A57AA",
"H+	c #5D5AAC",
"I+	c #7C7ABB",
"J+	c #C7C6DF",
"K+	c #F4F4F6",
"L+	c #FDFDFD",
"M+	c #FFFFFF",
"N+	c #F4F4F5",
"O+	c #E2E1EE",
"P+	c #AFAED2",
"Q+	c #B1AFD4",
"R+	c #B5B4D5",
"S+	c #D5D4E6",
"T+	c #F5F4F8",
"U+	c #F2F2F5",
"V+	c #C6C5DE",
"W+	c #918FC4",
"X+	c #8885C2",
"Y+	c #7E7CBB",
"Z+	c #7370B6",
"`+	c #9895C8",
" @	c #E0DFEA",
".@	c #7875B6",
"+@	c #5A56A9",
"@@	c #5853A8",
"#@	c #534FA2",
"$@	c #0B0A46",
"%@	c #64647D",
"&@	c #A7A7A9",
"*@	c #6F6DB5",
"=@	c #7D7BBB",
"-@	c #DDDDEA",
";@	c #F8F8F9",
">@	c #FDFDFE",
",@	c #E9E8F2",
"'@	c #ADACD2",
")@	c #AFAED5",
"!@	c #ABAAD2",
"~@	c #B8B6D6",
"{@	c #E6E6EF",
"]@	c #F7F6F9",
"^@	c #F4F4F7",
"/@	c #DCDBE9",
"(@	c #9997C8",
"_@	c #7673B7",
":@	c #716EB5",
"<@	c #C3C2DD",
"[@	c #A9A7CF",
"}@	c #5854A7",
"|@	c #5955A8",
"1@	c #4C4897",
"2@	c #141354",
"3@	c #4B4B6D",
"4@	c #A2A2A6",
"5@	c #76768D",
"6@	c #6663B0",
"7@	c #6D6BB4",
"8@	c #E7E7F0",
"9@	c #A9A8CF",
"0@	c #ACABD4",
"a@	c #ABAAD4",
"b@	c #A5A4D0",
"c@	c #A4A2CD",
"d@	c #D1D1E4",
"e@	c #F4F4F8",
"f@	c #F7F7FB",
"g@	c #F1F1F6",
"h@	c #E9E9F0",
"i@	c #D6D5E6",
"j@	c #D5D4E5",
"k@	c #E1E1EE",
"l@	c #D1CFE4",
"m@	c #5E5BA7",
"n@	c #494693",
"o@	c #11114E",
"p@	c #3A3A63",
"q@	c #9F9FA3",
"r@	c #6B6B85",
"s@	c #05052B",
"t@	c #5B58AB",
"u@	c #5D59AB",
"v@	c #6562B0",
"w@	c #6B68B3",
"x@	c #E7E7F1",
"y@	c #BBB9D8",
"z@	c #9695C4",
"A@	c #B0AED2",
"B@	c #EAE9F1",
"C@	c #AFAED3",
"D@	c #A6A5D0",
"E@	c #9593C6",
"F@	c #B6B5D5",
"G@	c #F1F1F5",
"H@	c #F4F4F9",
"I@	c #F0F0F7",
"J@	c #EBEAF3",
"K@	c #E7E6F0",
"L@	c #E5E4F1",
"M@	c #E3E2F0",
"N@	c #DBDAEA",
"O@	c #6663A0",
"P@	c #12124D",
"Q@	c #33335F",
"R@	c #96969D",
"S@	c #74748D",
"T@	c #06063A",
"U@	c #5B58AA",
"V@	c #5F5CAD",
"W@	c #6865B2",
"X@	c #7875B9",
"Y@	c #E5E5EF",
"Z@	c #9998C7",
"`@	c #9795C8",
" #	c #A19FCB",
".#	c #D7D7E7",
"+#	c #BBBAD7",
"@#	c #9E9DCC",
"##	c #9F9CCD",
"$#	c #9B9ACC",
"%#	c #9492C7",
"&#	c #8E8BC4",
"*#	c #8583BE",
"=#	c #9896C6",
"-#	c #E3E3ED",
";#	c #F2F2F7",
">#	c #F1F1F7",
",#	c #EDEDF6",
"'#	c #EAE9F4",
")#	c #E6E5F2",
"!#	c #E1E1EF",
"~#	c #BDBCCF",
"{#	c #252557",
"]#	c #333362",
"^#	c #90909A",
"/#	c #6E6E87",
"(#	c #02023D",
"_#	c #04041F",
":#	c #5C59AB",
"<#	c #5F5CAC",
"[#	c #6260AF",
"}#	c #6E6BB3",
"|#	c #D9D9E8",
"1#	c #908EC2",
"2#	c #9190C6",
"3#	c #9594C8",
"4#	c #9897C7",
"5#	c #C2C1DB",
"6#	c #C5C4DD",
"7#	c #9694C7",
"8#	c #8F8EC5",
"9#	c #8482C0",
"0#	c #7F7DBD",
"a#	c #7977B9",
"b#	c #817FBA",
"c#	c #EDEDF3",
"d#	c #ECECF5",
"e#	c #C8C7D8",
"f#	c #363666",
"g#	c #313161",
"h#	c #898996",
"i#	c #6B6B81",
"j#	c #070741",
"k#	c #19184A",
"l#	c #5E5BAC",
"m#	c #615FAF",
"n#	c #6967B1",
"o#	c #FCFCFE",
"p#	c #FEFDFE",
"q#	c #8886BD",
"r#	c #8987C1",
"s#	c #908FC5",
"t#	c #9190C5",
"u#	c #8F8DC3",
"v#	c #8C8BC0",
"w#	c #8D8CC4",
"x#	c #8988C2",
"y#	c #8584C0",
"z#	c #8280BF",
"A#	c #7B7ABB",
"B#	c #7976B9",
"C#	c #7572B7",
"D#	c #726FB3",
"E#	c #9B9AC8",
"F#	c #E1E0ED",
"G#	c #D9D9E6",
"H#	c #42416F",
"I#	c #333363",
"J#	c #7D7D8F",
"K#	c #6C6C80",
"L#	c #0B0B43",
"M#	c #0E0E43",
"N#	c #343265",
"O#	c #5D5AAB",
"P#	c #6462B0",
"Q#	c #ADACD3",
"R#	c #8987BF",
"S#	c #7F7EBC",
"T#	c #8382BF",
"U#	c #8785C1",
"V#	c #8786C1",
"W#	c #8684C0",
"X#	c #8583C0",
"Y#	c #8382C0",
"Z#	c #8280BE",
"`#	c #817FBE",
" $	c #7D7BBC",
".$	c #7675B9",
"+$	c #7371B6",
"@$	c #6F6DB4",
"#$	c #6B6AAF",
"$$	c #9594BF",
"%$	c #4D4D78",
"&$	c #353565",
"*$	c #75758B",
"=$	c #626277",
"-$	c #04043E",
";$	c #0A0A41",
">$	c #2F2D5D",
",$	c #444182",
"'$	c #6361AF",
")$	c #6764B0",
"!$	c #A7A6D0",
"~$	c #FCFCFD",
"{$	c #8987C0",
"]$	c #7A78BA",
"^$	c #807FBE",
"/$	c #8180BE",
"($	c #807EBE",
"_$	c #7A79BB",
":$	c #7876BA",
"<$	c #7573B8",
"[$	c #716FB5",
"}$	c #6A68B2",
"|$	c #6461AB",
"1$	c #333270",
"2$	c #353566",
"3$	c #6E6E89",
"4$	c #626276",
"5$	c #080840",
"6$	c #06063F",
"7$	c #2A2858",
"8$	c #403D7A",
"9$	c #504D99",
"0$	c #6865B0",
"a$	c #5F5DAC",
"b$	c #6664B0",
"c$	c #A7A5D0",
"d$	c #F2F2F4",
"e$	c #8785BF",
"f$	c #7877B9",
"g$	c #7E7CBC",
"h$	c #7E7DBD",
"i$	c #7F7EBD",
"j$	c #7674B8",
"k$	c #7370B7",
"l$	c #6C69B3",
"m$	c #6765AF",
"n$	c #4B488A",
"o$	c #6A6A84",
"p$	c #6F6F89",
"q$	c #676779",
"r$	c #0C0C43",
"s$	c #02023E",
"t$	c #252353",
"u$	c #3E3B75",
"v$	c #4E4B95",
"w$	c #5753A6",
"x$	c #5C59AA",
"y$	c #8381BD",
"z$	c #8785BE",
"A$	c #5B59AA",
"B$	c #6462AF",
"C$	c #807FBB",
"D$	c #7573B7",
"E$	c #7876B9",
"F$	c #7D7CBC",
"G$	c #7978BB",
"H$	c #7371B7",
"I$	c #706EB5",
"J$	c #6967B0",
"K$	c #514F94",
"L$	c #363667",
"M$	c #6B6B8B",
"N$	c #72727E",
"O$	c #3B3B61",
"P$	c #1D1D4D",
"Q$	c #3C396F",
"R$	c #4C4A90",
"S$	c #5753A4",
"T$	c #A8A8CF",
"U$	c #A1A0CA",
"V$	c #6461AC",
"W$	c #D3D3E5",
"X$	c #7473B4",
"Y$	c #7372B6",
"Z$	c #7E7CBD",
"`$	c #7C7BBC",
" %	c #7977BA",
".%	c #706FB6",
"+%	c #6C69B2",
"@%	c #5A589F",
"#%	c #303066",
"$%	c #6D6D8E",
"%%	c #6C6C7F",
"&%	c #15154A",
"*%	c #282855",
"=%	c #36365C",
"-%	c #39376C",
";%	c #4B488D",
">%	c #5653A2",
",%	c #6360AC",
"'%	c #C5C4DC",
")%	c #D2D1E2",
"!%	c #ADACD1",
"~%	c #C4C4DE",
"{%	c #EDEDF1",
"]%	c #F7F7FA",
"^%	c #7371B2",
"/%	c #8281BF",
"(%	c #7472B6",
"_%	c #6765AA",
":%	c #2E2D68",
"<%	c #66668B",
"[%	c #5A5A81",
"}%	c #1B1B50",
"|%	c #01013D",
"1%	c #181849",
"2%	c #3A386B",
"3%	c #4A488B",
"4%	c #5653A1",
"5%	c #5A57A9",
"6%	c #5E5BAB",
"7%	c #6D6BB1",
"8%	c #D9D8E6",
"9%	c #EBEBF2",
"0%	c #F0F0F5",
"a%	c #F5F5F8",
"b%	c #E3E3EF",
"c%	c #7271B2",
"d%	c #7C7BBB",
"e%	c #8685C0",
"f%	c #8381BF",
"g%	c #7472B3",
"h%	c #2F2F6A",
"i%	c #5C5C83",
"j%	c #67678B",
"k%	c #212156",
"l%	c #01013E",
"m%	c #121246",
"n%	c #383666",
"o%	c #4A488A",
"p%	c #5753A2",
"q%	c #EBEBF1",
"r%	c #F3F3F8",
"s%	c #CDCDE3",
"t%	c #7271B3",
"u%	c #7A79BA",
"v%	c #7F7DBC",
"w%	c #8887C2",
"x%	c #8887C1",
"y%	c #7C7AB8",
"z%	c #3D3C78",
"A%	c #484873",
"B%	c #707092",
"C%	c #313162",
"D%	c #03033E",
"E%	c #0E0E44",
"F%	c #343362",
"G%	c #484584",
"H%	c #55529F",
"I%	c #5E5CAC",
"J%	c #5C5AAA",
"K%	c #B7B7D6",
"L%	c #ABAAD0",
"M%	c #7573B5",
"N%	c #8888C2",
"O%	c #8A89C3",
"P%	c #8B8AC3",
"Q%	c #8B89C3",
"R%	c #8483BE",
"S%	c #52518B",
"T%	c #757596",
"U%	c #42426F",
"V%	c #070742",
"W%	c #0A0941",
"X%	c #34335F",
"Y%	c #484680",
"Z%	c #56539D",
"`%	c #5B58A9",
" &	c #6664AE",
".&	c #CFCFE3",
"+&	c #EFEFF6",
"@&	c #817FB9",
"#&	c #7876B8",
"$&	c #8281BE",
"%&	c #8987C2",
"&&	c #8C8AC3",
"*&	c #66649D",
"=&	c #27265A",
"-&	c #6F6F92",
";&	c #4E4E78",
">&	c #0C0C46",
",&	c #060640",
"'&	c #35345D",
")&	c #4D4B7F",
"!&	c #59579C",
"~&	c #5D5AA9",
"{&	c #A5A4CD",
"]&	c #9290C7",
"^&	c #908FC6",
"/&	c #8E8DC5",
"(&	c #7A79B0",
"_&	c #232259",
":&	c #5E5E84",
"<&	c #57577F",
"[&	c #12124A",
"}&	c #04043F",
"|&	c #302F59",
"1&	c #515080",
"2&	c #605E9E",
"3&	c #5F5DAD",
"4&	c #605DAC",
"5&	c #6361AC",
"6&	c #6E6DB0",
"7&	c #7674B6",
"8&	c #817FBD",
"9&	c #9392C7",
"0&	c #9998CA",
"a&	c #9A98CB",
"b&	c #9A99CB",
"c&	c #9997CA",
"d&	c #8786BC",
"e&	c #2C2C65",
"f&	c #4B4B76",
"g&	c #55557E",
"h&	c #16164E",
"i&	c #2C2B55",
"j&	c #51507A",
"k&	c #66649F",
"l&	c #6C69AF",
"m&	c #6562AF",
"n&	c #5C58AC",
"o&	c #615EAD",
"p&	c #7673B8",
"q&	c #807DBC",
"r&	c #9493C8",
"s&	c #9897CA",
"t&	c #9E9DCD",
"u&	c #9F9DCD",
"v&	c #9D9DCC",
"w&	c #9B9ACA",
"x&	c #9695C6",
"y&	c #47477C",
"z&	c #333364",
"A&	c #50507A",
"B&	c #15154D",
"C&	c #2A2A54",
"D&	c #535179",
"E&	c #68679D",
"F&	c #7270B1",
"G&	c #6260AE",
"H&	c #6C6AB3",
"I&	c #918FC6",
"J&	c #9695C9",
"K&	c #A09FCE",
"L&	c #A1A0CF",
"M&	c #A19FCE",
"N&	c #9D9BCB",
"O&	c #7675A2",
"P&	c #74748A",
"Q&	c #4E4E77",
"R&	c #17174E",
"S&	c #01023D",
"T&	c #24234F",
"U&	c #54537A",
"V&	c #6C6A9D",
"W&	c #7775B2",
"X&	c #5E5BAD",
"Y&	c #625FAD",
"Z&	c #6A69B3",
"`&	c #9D9CCC",
" *	c #9F9ECD",
".*	c #8C8BB9",
"+*	c #202055",
"@*	c #555579",
"#*	c #6A6A7D",
"$*	c #222252",
"%*	c #1D1D4B",
"&*	c #505073",
"**	c #6C6A9B",
"=*	c #7A79B4",
"-*	c #7875B8",
";*	c #5E5BAE",
">*	c #8C8BC4",
",*	c #9290C6",
"'*	c #9C9BCC",
")*	c #9493C3",
"!*	c #36356B",
"~*	c #191950",
"{*	c #5A5A72",
"]*	c #4F4E70",
"^*	c #696794",
"/*	c #7A78B2",
"(*	c #716FB6",
"_*	c #8A89C2",
":*	c #908EC5",
"<*	c #9796C9",
"[*	c #5F5D91",
"}*	c #222257",
"|*	c #19194F",
"1*	c #4E4D70",
"2*	c #666493",
"3*	c #7573AD",
"4*	c #7573B6",
"5*	c #6A67B2",
"6*	c #5A57A6",
"7*	c #7472B7",
"8*	c #8886C1",
"9*	c #8C8BC3",
"0*	c #7E7DB2",
"a*	c #222259",
"b*	c #171748",
"c*	c #48486C",
"d*	c #615F90",
"e*	c #6E6CAA",
"f*	c #6D6BB2",
"g*	c #5956A6",
"h*	c #514E94",
"i*	c #6563B0",
"j*	c #6B69B3",
"k*	c #7572B8",
"l*	c #3D3C77",
"m*	c #171648",
"n*	c #424069",
"o*	c #56548A",
"p*	c #615FA4",
"q*	c #615FAC",
"r*	c #4E4C92",
"s*	c #56549E",
"t*	c #535198",
"u*	c #12124B",
"v*	c #161648",
"w*	c #383765",
"x*	c #494783",
"y*	c #56549D",
"z*	c #5C5AA9",
"A*	c #55529C",
"B*	c #4F4D91",
"C*	c #5B59A6",
"D*	c #222161",
"E*	c #040440",
"F*	c #1B1B4E",
"G*	c #3A386A",
"H*	c #4A4887",
"I*	c #5C5AAB",
"J*	c #4F4D93",
"K*	c #4A4787",
"L*	c #3A387D",
"M*	c #1D1C4D",
"N*	c #383667",
"O*	c #474582",
"P*	c #524F96",
"Q*	c #525097",
"R*	c #494787",
"S*	c #000030",
"T*	c #00001B",
"U*	c #06060C",
"                                    . . . . . . + +                                             ",
"                              @ # # # $ % & * = - ; . . .                                       ",
"                        # # # > , ' ) ! ~ { ] ^ / ! ( _ : @ . .                                 ",
"                    : : > < [ } | 1 2 3 4 5 6 7 8 9 0 a b c - @ @                               ",
"                  > d d e f g h i j 9 k l m n o p p o q r s b t u # .                           ",
"                d d v w x y z A B C D E n p F G H I J K p L M N O % # @                         ",
"              d P Q R S T U V W C X Y Z ` I  ...+.@.+.#.J $.%.&.*.=.-.# #                       ",
"            d ;.v w >.,.'.).!.9 D ~.o K H {.].^./.(._.:.<.[.}.|.5 1.2.3.# #                     ",
"          ;.4.v 5.6.7.8.N 9.4 k 0.n a.b.b.c.d./.e.f.g.h.{.K i.j.6 k.l.m.n.> #                   ",
"        4.4.o.p.q.r.2.s.1.t.u.X %.v.w.x.y.z.A.B.C.f.^.h.{.K D.|.r j E.T F.< d :                 ",
"        4.G.H.I.J.x K.L.M.N.6 0.O.P.Q.R.R.S.T.U.V.W.X.Y. .Z.%.D `. +.+++@+#+d d                 ",
"      4.o.o.$+w %+&+*+z =+-+J ;+ .>+,+R.R.S.S.'+)+!+~+{+G o ]+^+/+=+z (+_+:+4.d >               ",
"      o.o.Q <+[+}+|+1+2+3+4+5+6+7+8+S.R.9+R.'+0+a+b+4+c+d+e+f+g+h+1.i+j+k+l+Q ;.d               ",
"    o.o.m+H.<+[+6.7.n+o+p+q+r+s+t+A.T.R.u+v+w+>+T.S.S.x.x+y+z+N.A+B+C+D+E+F+H.4.d -             ",
"    o.m+Q G+H+[+}+7.I+J+K+L+M+r+,+N+K+S.O+P+Q+R+S+T+'+S.T.U+V+W+X+Y+Z+`+ @.@+@4.@@#@$@%@&@      ",
"  o.v Q Q H.H+w %+*@=@-@;@>@M+r+L+S.,+S.,@'@J )@!@~@{@]@a+'+^@/@(@_@:@<@-@[@}@|@1@2@3@4@5@      ",
"  v m+Q G+H.H+w 6@7@'.8@'+r+M+T+b.^@,+S.)+9@0@a@%.b@c@d@e@'+f@g@h@i@j@ @k@l@m@n@o@p@q@r@s@      ",
"  v Q G+H.t@u@I.v@w@n+x@'+>@r+y@z@A@B@T.'+C@D@0.X k z+E@F@G@)+H@I@J@K@L@M@N@O@P@Q@R@S@T@        ",
"  Q Q H.U@t@u@V@q.W@X@Y@'+>@r+Z@`@`. #.#U.+#@###$#/+%#&#*#=#-#;#>#,#'#)#!#~#{#]#^#/#(#_#        ",
"  Q G+H.t@:#:#<#[#%+}#|#T.>@r+1#2#3#/+4#5#6#7#B h+8#).9#0#a#b#J+c#d#'#L@e#f#g#h#i#j#k#          ",
"  Q H.t@#+:#u@l#m#6@n#7+x.o#p#q#r#M.s#t#u#z@v#w#x#y#z#0#A#B#C#D#E#F#x@G#H#I#J#K#L#M#N#          ",
"  G+H.t@:#:#O#l#w P#6.Q#x.o#>@R#S#T#y#U#V#W#X#Y#Z#`#0# $8..$+$@$@+#$$$%$&$*$=$-$;$>$,$          ",
"  G+H.#+:#:#H+l#I.'$)$!$K+~$>@{$]$ $0#^$Z#Z#z#/$($0# $_$:$<$[$7@}$|$1$2$3$4$5$6$7$8$9$          ",
"  H.t@:#:#0$:#l#a$[+b$c$d$~$>@e$f$_$n+g$h$i$i$0#g$n+_$T j$k$*@l$m$n$o$p$q$r$s$t$u$v$w$          ",
"  H.t@:#x$y$z$A$<#w B${+z.o#>@C$D$E$]$I+F$h$i$h$g$n+G$K.H$I$7@J$K$L$M$N$O$(#P$Q$R$S$o.          ",
"  H.t@:#u@x$T$U$V$<#)$W$x.o#>@X$Y$E$A#Z$'./$z#Z#`#i$`$ %<$.%+%@%#%$%%%&%*%=%-%;%>%+@v           ",
"  t@t@:#O#H+,%'%)%!%~%{%]%~$)+^%D$]$ $^$/%B+X#y#B+Z#'.`$a#(%_%:%<%[%}%|%1%2%3%4%5%Q v           ",
"  t@t@:#O#H+6%7%8%9%0%a%0+~$b%c%E$d%'./%X#W#U#U#e%X#f%'.I+g%h%i%j%k%l%m%n%o%p%5%G+Q m+          ",
"    #+:#O#H+l#6%z$q%r%f@0+~$s%t%u%v%Z#X#U#w%x#x#x%V#y#/%y%z%A%B%C%D%E%F%G%H%5%U@G+Q             ",
"    #+:#O#H+l#I%J%K%0%]%0+R.L%M%d%^$B+V#N%O%P%P%Q%).w%R%S%C%T%U%V%W%X%Y%Z%`%#+t@G+Q             ",
"      :#O#H+l#I%<# &.&e@'++&@&#&g$$&W#%&Q%i w#w#w#&&r#*&=&-&;&>&,&'&)&!&~&:##+U@G+              ",
"      :#O#H+l#l#<#<#7%<@8@{&M%i$2+P%8#2#h+h+]&^&/&&&(&_&:&<&[&}&|&1&2&|$l#:#t@H.G+              ",
"        O#H+l#l#<#3&4&5&6&7&8&%&/&9&`@0&a&b&c&B 9&d&e&f&g&h&(#i&j&k&l&m&O#:#t@n&                ",
"        :#O#H+l#<#V@o&n#p&q&V#=+r&s&g+t&u&u&v&w&x&y&z&A&B&|%C&D&E&F&l$o&:##+t@H.                ",
"          O#H+l#I%<#G&H&E$Z#x#I&J&`.t&K&L&M&^+N&O&P&Q&R&S&T&U&V&W&Z+v@O#:##+U@                  ",
"            X&H+l#I%Y&Z&K./$%&^&3#b&`& *K&K&@#.*+*@*#*$*%*&***=*-*w@l#:#:#t@                    ",
"              ;*l#l#4&6@.%1+X#>*,*J&a&'*`&'*)*!*z&~*j#{*]*^*/*#&x V@O#:##+                      ",
"                O#l#l#I.%+(*8.B+_*:*%#J&<*E@[*}*|*l%1%1*2*3*4*5*V@O#:#`%                        ",
"                  6*l#I%<#G&}$7*I+f%8*Q%9*0*a*~*|%b*c*d*e*f*q.l#O#O#g*                          ",
"                    h*l#l#<#<#w i*j*(*k*7&l*B&s$m*n*o*p*q*l#H+H+u@r*                            ",
"                        s*V@I%I%<#<#I.o&t*u*}&v*w*x*y*z*l#H+H+A*                                ",
"                            B*O#V@I%I%C*D*E*F*G*H*Z%z*X&I*J*                                    ",
"                                  K*t*L*s$M*N*O*P*Q*R*                                          ",
"                                      S*T*U*                                                    ",
"                                                                                                ",
"                                                                                                ",
"                                                                                                ",
"                                                                                                "};
