/* XPM */
static char *emacs_24[] = {
/* width height ncolors chars_per_pixel */
"24 24 256 2",
/* colors */
"AA c #FFFFFFFFFFFF",
"BA c #6E6E6B6BB5B5",
"CA c #6C6C6A6AB3B3",
"DA c #64646060B1B1",
"EA c #60605E5EADAD",
"FA c #59595656AAAA",
"GA c #86868383C1C1",
"HA c #63635E5EB0B0",
"IA c #5E5E5A5AAFAF",
"JA c #59595454ACAC",
"KA c #5B5B5858ABAB",
"LA c #5A5A5757AAAA",
"MA c #5D5D5A5AACAC",
"NA c #5D5D5A5AABAB",
"OA c #5A5A5656AAAA",
"PA c #58585454A9A9",
"AB c #5B5B5757AAAA",
"BB c #5C5C5858ABAB",
"CB c #5E5E5C5CACAC",
"DB c #59595555A9A9",
"EB c #72727070B6B6",
"FB c #59595555AAAA",
"GB c #60605D5DADAD",
"HB c #58585555A9A9",
"IB c #78787676B9B9",
"JB c #5F5F5D5DADAD",
"KB c #EFEFEEEEF7F7",
"LB c #55555050ABAB",
"MB c #66666464B0B0",
"NB c #7F7F7D7DBDBD",
"OB c #63636060AFAF",
"PB c #64646262AFAF",
"AC c #70706E6EB5B5",
"BC c #6A6A6767B2B2",
"CC c #55555151ABAB",
"DC c #79797777BABA",
"EC c #72726F6FB6B6",
"FC c #F7F7F7F7FBFB",
"GC c #E9E9E8E8F4F4",
"HC c #80807E7EBDBD",
"IC c #71716F6FB6B6",
"JC c #F4F4F4F4FAFA",
"KC c #6B6B6868B3B3",
"LC c #E5E5E5E5F2F2",
"MC c #E6E6E6E6F2F2",
"NC c #59595555ABAB",
"OC c #82828181BFBF",
"PC c #67676565B1B1",
"AD c #64646161AFAF",
"BD c #5D5D5B5BACAC",
"CD c #7D7D7A7ABCBC",
"DD c #6F6F6D6DB5B5",
"ED c #56565252AAAA",
"FD c #7C7C7A7ABBBB",
"GD c #75757373B8B8",
"HD c #D2D2D2D2E8E8",
"ID c #BCBCBBBBDDDD",
"JD c #57575353A9A9",
"KD c #A0A09E9ECECE",
"LD c #84848282BFBF",
"MD c #F8F8F8F8FCFC",
"ND c #61615F5FAEAE",
"OD c #73737070B7B7",
"PD c #BBBBBABADCDC",
"AE c #83838181BFBF",
"BE c #6A6A6868B2B2",
"CE c #D0D0CFCFE7E7",
"DE c #54545050ABAB",
"EE c #79797676BABA",
"FE c #F3F3F3F3F9F9",
"GE c #F2F2F1F1F8F8",
"HE c #60605C5CADAD",
"IE c #7D7D7B7BBCBC",
"JE c #85858383C0C0",
"KE c #78787777B9B9",
"LE c #54544F4FA9A9",
"ME c #68686565B1B1",
"NE c #68686666B1B1",
"OE c #5D5D5B5BABAB",
"PE c #E9E9E9E9F4F4",
"AF c #E1E1E0E0EFEF",
"BF c #C8C8C6C6E3E3",
"CF c #66666161B1B1",
"DF c #87878686C1C1",
"EF c #92928F8FC8C8",
"FF c #81817E7EBFBF",
"GF c #B0B0AEAED6D6",
"HF c #71716E6EB6B6",
"IF c #9E9E9C9CCDCD",
"JF c #7F7F7E7EBDBD",
"KF c #C1C1C0C0DFDF",
"LF c #E1E1E1E1EFEF",
"MF c #6B6B6868B2B2",
"NF c #60605D5DACAC",
"OF c #5F5F5C5CADAD",
"PF c #55555151A8A8",
"AG c #7D7D7B7BBDBD",
"BG c #D4D4D3D3E9E9",
"CG c #E2E2E1E1F0F0",
"DG c #D8D8D7D7EBEB",
"EG c #F1F1F0F0F8F8",
"FG c #66666262B0B0",
"GG c #88888686C2C2",
"HG c #69696767B2B2",
"IG c #D5D5D4D4E9E9",
"JG c #94949292C8C8",
"KG c #FCFCFCFCFEFE",
"LG c #C3C3C2C2E1E1",
"MG c #6E6E6D6DB5B5",
"NG c #CBCBCACAE4E4",
"OG c #84848282C0C0",
"PG c #57575252AAAA",
"AH c #58585353A9A9",
"BH c #52524E4EA8A8",
"CH c #7B7B7979BBBB",
"DH c #96969595C9C9",
"EH c #7D7D7A7ABBBB",
"FH c #8F8F8D8DC5C5",
"GH c #C6C6C6C6E2E2",
"HH c #C5C5C4C4E1E1",
"IH c #67676363B1B1",
"JH c #B9B9B8B8DBDB",
"KH c #60605D5DAEAE",
"LH c #ECECECECF5F5",
"MH c #5C5C5858AAAA",
"NH c #DCDCDBDBEDED",
"OH c #D0D0D0D0E7E7",
"PH c #86868484C0C0",
"AI c #80807E7EBEBE",
"BI c #B8B8B7B7DADA",
"CI c #5E5E5A5AACAC",
"DI c #B0B0AFAFD6D6",
"EI c #81818080BEBE",
"FI c #97979696C9C9",
"GI c #C6C6C5C5E2E2",
"HI c #C7C7C5C5E1E1",
"II c #59595454A9A9",
"JI c #90908D8DC5C5",
"KI c #90908D8DC6C6",
"LI c #A8A8A7A7D2D2",
"MI c #84848181C0C0",
"NI c #9A9A9898CACA",
"OI c #B3B3B1B1D8D8",
"PI c #7D7D7C7CBCBC",
"AJ c #83838181BEBE",
"BJ c #50504B4BA7A7",
"CJ c #F5F5F5F5F9F9",
"DJ c #D8D8D8D8EAEA",
"EJ c #F0F0F0F0F7F7",
"FJ c #5F5F5D5DACAC",
"GJ c #62626060ADAD",
"HJ c #63636262AFAF",
"IJ c #95959494C9C9",
"JJ c #CACAC9C9E3E3",
"KJ c #ACACABABD4D4",
"LJ c #EEEEEEEEF7F7",
"MJ c #CCCCCBCBE5E5",
"NJ c #EFEFEFEFF6F6",
"OJ c #E6E6E5E5F2F2",
"PJ c #85858484C0C0",
"AK c #56565151ABAB",
"BK c #C2C2C1C1E0E0",
"CK c #F6F6F6F6FAFA",
"DK c #5B5B5757ABAB",
"EK c #9E9E9C9CCECE",
"FK c #9F9F9E9ECECE",
"GK c #73737070B6B6",
"HK c #CACAC9C9E4E4",
"IK c #CDCDCCCCE5E5",
"JK c #CFCFCECEE6E6",
"KK c #A3A3A1A1D0D0",
"LK c #C7C7C7C7E2E2",
"MK c #83838080BFBF",
"NK c #FAFAFAFAFDFD",
"OK c #5C5C5A5AACAC",
"PK c #E9E9E8E8F3F3",
"AL c #8B8B8888C4C4",
"BL c #7E7E7B7BBCBC",
"CL c #6A6A6969B3B3",
"DL c #9C9C9A9ACBCB",
"EL c #5C5C5A5AABAB",
"FL c #9C9C9B9BCCCC",
"GL c #FBFBFCFCFEFE",
"HL c #88888686C1C1",
"IL c #F8F8F7F7FBFB",
"JL c #8A8A8787C2C2",
"KL c #EBEBEAEAF5F5",
"LL c #F2F2F2F2F9F9",
"ML c #75757474B8B8",
"NL c #ECECECECF6F6",
"OL c #EDEDECECF6F6",
"PL c #EDEDEDEDF6F6",
"AM c #EAEAE9E9F4F4",
"BM c #92928F8FC7C7",
"CM c #B6B6B4B4D9D9",
"DM c #7E7E7C7CBCBC",
"EM c #D9D9D9D9ECEC",
"FM c #C3C3C2C2E0E0",
"GM c #C3C3C3C3E0E0",
"HM c #6E6E6C6CB4B4",
"IM c #AFAFAEAED6D6",
"JM c #62626060AEAE",
"KM c #63636161AFAF",
"LM c #93939191C7C7",
"MM c #A2A2A0A0CFCF",
"NM c #73736F6FB7B7",
"OM c #E8E8E7E7F4F4",
"PM c #56565252ABAB",
"AN c #57575353AAAA",
"BN c #75757171B8B8",
"CN c #6C6C6969B2B2",
"DN c #BDBDBCBCDDDD",
"EN c #BEBEBDBDDEDE",
"FN c #EBEBEBEBF4F4",
"GN c #6B6B6767B2B2",
"HN c #7C7C7B7BBBBB",
"IN c #65656262B0B0",
"JN c #76767474B8B8",
"KN c #76767474B9B9",
"LN c #77777575B8B8",
"MN c #96969494C9C9",
"NN c #97979595C9C9",
"ON c #8E8E8C8CC5C5",
"PN c #FCFCFCFCFDFD",
"AO c #8E8E8D8DC5C5",
"BO c #D2D2D1D1E8E8",
"CO c #CBCBCBCBE5E5",
"DO c #94949393C7C7",
"EO c #C4C4C4C4E0E0",
"FO c #83838282BFBF",
"GO c #66666363B0B0",
"HO c #81817F7FBDBD",
"IO c #BCBCBBBBDCDC",
"JO c #56565353A8A8",
"KO c #57575353A8A8",
"LO c #B2B2B0B0D8D8",
"MO c #A4A4A2A2D0D0",
"NO c #A5A5A3A3D0D0",
"OO c #F1F1F1F1F8F8",
"PO c #EDEDECECF5F5",
"AP c #9F9F9D9DCDCD",
"BP c #E1E1E1E1F0F0",
"CP c #DCDCDCDCEEEE",
"DP c #DDDDDCDCEEEE",
"EP c #DCDCDBDBECEC",
"FP c #90908F8FC6C6",
"GP c #71716E6EB5B5",
"HP c #91919090C6C6",
"IP c #D1D1D0D0E7E7",
"JP c #87878484C1C1",
"KP c #84848181BFBF",
"LP c #85858282C0C0",
"MP c #B8B8B7B7DBDB",
"NP c #5E5E5B5BACAC",
"OP c #5C5C5959ABAB",
"PP s bg c None",
/* pixels */
"PPPPPPPPPPPPPPPPPPAKCCCCCCLBDEPPPPPPPPPPPPPPPPPP",
"PPPPPPPPPPPPPMEDEDNCIAHADAHAIAJALBDEPPPPPPPPPPPP",
"PPPPPPPPPPPGJDDBHEBCODEECDCDEEHFCFNCLBPPPPPPPPPP",
"PPPPPPPPJDPAMHFGECEEKPGAJPJLBMDLONNMNCLEPPPPPPPP",
"PPPPPPAHIIBBIHBNFFOICENGMPEKEFMNIMIDKDINBJPPPPPP",
"PPPPPADBABOBEBEHAPFNKBOOCKPOHDGFJIKIIKCGALBHPPPP",
"PPPADBFACIGNCHMIKKPKKLOMIPIGGCJCGCBFBOMDPECFLEPP",
"PPFBOALAGBBAAGGGJGDGKBBPFKNIFLDIHDLJGEKBMJHEPFPP",
"PPFAABABLAKCFDJEHLLIAMPLBILMBMLPBLAEFHGAKHKOPAAN",
"FBLALAKAIJLGHKHIPDMOIOPEAFFIPHNBODMBMADBDBOAHBPA",
"OAABJODCLHFCFEFEFCEJEMCPNLPDJNGKCAMEADNPABOAFAPA",
"LAKAHBECAFOLEGLCBKIDGHOHDPOJNNMFCNPCOBNPKALAOAHB",
"LABBOPHBKJNJCJCMHJHMEBLNHOKDNODDBCMBNDOEOPKAOAFB",
"DKBBMAKAPBFMJCDJGDBEICEBEBCAMGBANEPBGBNAOPKAOAFB",
"KAOPMANPLABEEOFCGMDDEBKEDCKEGDACBCKMCBNAOPKAABFB",
"PPOPMACBJBOPPBENMDHHIECHHCJFIEIBICHGEAMAOPBBLAPP",
"PPOPMACBOFEAJBCLKFPNCEDFHCFOOCDMIBECNEJBOPKALAPP",
"PPOPMACBNFOEGJCAHNJKKGNHHPAJPJEIPIIBACOBOPKALAPP",
"PPPPNAMAADMLNBOCAEDOLCGLLFDHLDOGAIFDGPGBOPKAPPPP",
"PPPPPPMANPPCFPJHLKJJMCLLNKEPAOLDMKDCMBOPBBPPPPPP",
"PPPPPPPPNPNPGBKNIFCOMCGEILAAGINBIBMENAOPPPPPPPPP",
"PPPPPPPPPPBDNPEAGOACJEMMDNBGLOKCNDOPOPPPPPPPPPPP",
"PPPPPPPPPPPPNPNPNPNPNPELFJJMCBOPNANAPPPPPPPPPPPP",
"PPPPPPPPPPPPPPPPNPNPNPBDNAOPOKPPPPPPPPPPPPPPPPPP"};
