/* XPM */
static char * emacs_32_xpm[] = {
"32 32 462 2",
"  	c None",
". 	c #5652AB",
"+ 	c #5652AC",
"@ 	c #5752AC",
"# 	c #5853AC",
"$ 	c #5753AC",
"% 	c #5651AC",
"& 	c #5853AB",
"* 	c #5D58AD",
"= 	c #6763B3",
"- 	c #6D69B6",
"; 	c #706DB7",
"> 	c #716EB8",
", 	c #6E6AB6",
"' 	c #6561B2",
") 	c #5955AD",
"! 	c #5651AB",
"~ 	c #5752AB",
"{ 	c #5A56AC",
"] 	c #635FAF",
"^ 	c #7673B9",
"/ 	c #8482C0",
"( 	c #9390C8",
"_ 	c #9A98CB",
": 	c #A09ECE",
"< 	c #A3A1D0",
"[ 	c #A3A0D0",
"} 	c #9E9CCD",
"| 	c #8F8CC6",
"1 	c #7A77BC",
"2 	c #605CB0",
"3 	c #5753AA",
"4 	c #5C58AC",
"5 	c #6C68B4",
"6 	c #7B78BB",
"7 	c #8E8BC4",
"8 	c #9896CA",
"9 	c #A19FCF",
"0 	c #A7A5D1",
"a 	c #ACAAD4",
"b 	c #AEADD5",
"c 	c #B0AED6",
"d 	c #AFAED6",
"e 	c #ABA9D4",
"f 	c #A2A0CF",
"g 	c #8885C3",
"h 	c #6C69B5",
"i 	c #5853A9",
"j 	c #605CAD",
"k 	c #6D6AB4",
"l 	c #7F7CBD",
"m 	c #8D8AC4",
"n 	c #9B98CB",
"o 	c #A3A0CF",
"p 	c #AAA8D3",
"q 	c #AEADD6",
"r 	c #B3B1D7",
"s 	c #B5B4D8",
"t 	c #B6B4D9",
"u 	c #B3B2D8",
"v 	c #AFADD5",
"w 	c #A6A4D1",
"x 	c #9693C9",
"y 	c #7470B8",
"z 	c #5C58AD",
"A 	c #5854A9",
"B 	c #5C58AB",
"C 	c #6966B2",
"D 	c #7673B8",
"E 	c #8785C1",
"F 	c #9491C8",
"G 	c #A8A6D2",
"H 	c #C5C4E0",
"I 	c #D0CFE5",
"J 	c #C2C1DE",
"K 	c #B9B7DA",
"L 	c #B9B8DB",
"M 	c #B8B7DB",
"N 	c #B1AFD6",
"O 	c #A9A7D2",
"P 	c #8B87C3",
"Q 	c #706CB6",
"R 	c #5B57AA",
"S 	c #635FAE",
"T 	c #6F6CB5",
"U 	c #7D7ABC",
"V 	c #8E8CC5",
"W 	c #C7C5E0",
"X 	c #F5F5F7",
"Y 	c #F8F8FA",
"Z 	c #E2E2ED",
"` 	c #B9B8DA",
" .	c #9F9DCD",
"..	c #918EC6",
"+.	c #8582BF",
"@.	c #625FAE",
"#.	c #5854AA",
"$.	c #5955A9",
"%.	c #5D5AAC",
"&.	c #6562B0",
"*.	c #726FB6",
"=.	c #817EBE",
"-.	c #9492C7",
";.	c #AAA9D3",
">.	c #D9D8E9",
",.	c #F9F9FB",
"'.	c #FBFBFD",
").	c #FAFAFC",
"!.	c #E9E9F1",
"~.	c #CCCBE2",
"{.	c #B3B2D7",
"].	c #A5A3D0",
"^.	c #9C9ACB",
"/.	c #9997C9",
"(.	c #6D6AB1",
"_.	c #5A56AA",
":.	c #5F5CAD",
"<.	c #6663B0",
"[.	c #7471B7",
"}.	c #8886C2",
"|.	c #DEDEEB",
"1.	c #FAFAF9",
"2.	c #E5E5EE",
"3.	c #E4E4ED",
"4.	c #FAF9FC",
"5.	c #EDEDF5",
"6.	c #F4F4F8",
"7.	c #F7F7F9",
"8.	c #D8D7E8",
"9.	c #B4B3D7",
"0.	c #9492C8",
"a.	c #8582C0",
"b.	c #8A88C2",
"c.	c #9694C4",
"d.	c #5C58AA",
"e.	c #5753AB",
"f.	c #5956AA",
"g.	c #5A57AA",
"h.	c #7572B8",
"i.	c #A5A3CF",
"j.	c #F6F6F7",
"k.	c #FEFEFE",
"l.	c #FBFBFB",
"m.	c #F3F3F5",
"n.	c #EEEEF5",
"o.	c #BBBAD9",
"p.	c #C5C4DE",
"q.	c #E8E7F1",
"r.	c #F8F8FB",
"s.	c #E5E5EF",
"t.	c #ACAAD2",
"u.	c #7C7ABB",
"v.	c #8A87C1",
"w.	c #B6B4D4",
"x.	c #625EAC",
"y.	c #5651A6",
"z.	c #2F2E5B",
"A.	c #8B8B94",
"B.	c #5955AA",
"C.	c #5E5BAD",
"D.	c #7472B7",
"E.	c #C0BFDC",
"F.	c #FAFAFB",
"G.	c #FEFEFF",
"H.	c #F6F6F9",
"I.	c #F2F1F7",
"J.	c #ADACD2",
"K.	c #ADABD3",
"L.	c #C6C5DE",
"M.	c #EFEEF5",
"N.	c #F9F8FB",
"O.	c #EFEFF5",
"P.	c #C3C2DD",
"Q.	c #9592C6",
"R.	c #B9B8D8",
"S.	c #D1D0E4",
"T.	c #7976B7",
"U.	c #4B4796",
"V.	c #292766",
"W.	c #757588",
"X.	c #6B6B80",
"Y.	c #5E5BAC",
"Z.	c #6461AF",
"`.	c #C4C3DF",
" +	c #C4C2DD",
".+	c #BFBDDA",
"++	c #F2F2F6",
"@+	c #ABAAD2",
"#+	c #A7A6D2",
"$+	c #A4A2D0",
"%+	c #A09ECD",
"&+	c #B4B3D6",
"*+	c #E6E6F0",
"=+	c #F5F5F9",
"-+	c #EFEFF6",
";+	c #E3E2EE",
">+	c #DFDEED",
",+	c #8A88BA",
"'+	c #252561",
")+	c #5D5D7A",
"!+	c #666680",
"~+	c #141434",
"{+	c #5B58AB",
"]+	c #6C69B3",
"^+	c #BDBCDB",
"/+	c #9694C6",
"(+	c #9896C9",
"_+	c #AAA9D1",
":+	c #D8D7E7",
"<+	c #B3B2D4",
"[+	c #9796CA",
"}+	c #9290C7",
"|+	c #8886C1",
"1+	c #8A88C0",
"2+	c #CDCDE2",
"3+	c #ECECF3",
"4+	c #ECEBF5",
"5+	c #E7E6F2",
"6+	c #C0C0D4",
"7+	c #4B4B76",
"8+	c #61617D",
"9+	c #5E5E7B",
"0+	c #0A0A3B",
"a+	c #5C59AB",
"b+	c #5D5AAB",
"c+	c #605EAE",
"d+	c #6865B1",
"e+	c #A9A8D0",
"f+	c #F9F9FA",
"g+	c #FDFDFE",
"h+	c #8B89C0",
"i+	c #8E8DC4",
"j+	c #9392C6",
"k+	c #9C9AC9",
"l+	c #9E9DC9",
"m+	c #908FC5",
"n+	c #8B8AC3",
"o+	c #8684C1",
"p+	c #7F7DBD",
"q+	c #7A78BA",
"r+	c #807EBB",
"s+	c #A9A8CF",
"t+	c #E6E5F0",
"u+	c #E1E0EC",
"v+	c #5B5A83",
"w+	c #545476",
"x+	c #5D5D77",
"y+	c #161649",
"z+	c #2B295A",
"A+	c #605DAD",
"B+	c #6563B0",
"C+	c #9593C7",
"D+	c #F8F8F9",
"E+	c #8583BE",
"F+	c #807EBD",
"G+	c #8482BF",
"H+	c #8584C0",
"I+	c #8382BF",
"J+	c #817FBE",
"K+	c #7B79BB",
"L+	c #7775B9",
"M+	c #716FB5",
"N+	c #6C69B2",
"O+	c #6D6BAB",
"P+	c #555483",
"Q+	c #555577",
"R+	c #52526F",
"S+	c #0A0A42",
"T+	c #2A285D",
"U+	c #48458A",
"V+	c #615EAD",
"W+	c #5F5CAC",
"X+	c #9190C5",
"Y+	c #8381BD",
"Z+	c #7A79BB",
"`+	c #7E7CBC",
" @	c #7F7EBD",
".@	c #807FBD",
"+@	c #7E7CBD",
"@@	c #7C7ABC",
"#@	c #7876BA",
"$@	c #6F6CB4",
"%@	c #6967B1",
"&@	c #55538D",
"*@	c #5A5A7D",
"=@	c #545470",
"-@	c #101046",
";@	c #242257",
">@	c #434081",
",@	c #5451A1",
"'@	c #6D6BB3",
")@	c #8786BF",
"!@	c #6764AF",
"~@	c #A09FCC",
"{@	c #7978B8",
"]@	c #7775B8",
"^@	c #7B7ABC",
"/@	c #7674B9",
"(@	c #716FB6",
"_@	c #6A68B0",
":@	c #504E91",
"<@	c #54547A",
"[@	c #5B5B75",
"}@	c #2A2A56",
"|@	c #202052",
"1@	c #464383",
"2@	c #5552A0",
"3@	c #8F8DC2",
"4@	c #B1B0D2",
"5@	c #9998C8",
"6@	c #CFCFE3",
"7@	c #7472B4",
"8@	c #7876B9",
"9@	c #7D7CBC",
"0@	c #8280BE",
"a@	c #7473B7",
"b@	c #5A589C",
"c@	c #4C4C7D",
"d@	c #525279",
"e@	c #17174B",
"f@	c #262655",
"g@	c #403F78",
"h@	c #54519E",
"i@	c #5A56A9",
"j@	c #615FAD",
"k@	c #A19FCB",
"l@	c #EDEDF3",
"m@	c #E6E6F1",
"n@	c #7473B5",
"o@	c #8180BE",
"p@	c #8583C0",
"q@	c #8685C0",
"r@	c #8483C0",
"s@	c #7F7DBC",
"t@	c #6A69A8",
"u@	c #464676",
"v@	c #5A5A81",
"w@	c #111149",
"x@	c #15154A",
"y@	c #43407B",
"z@	c #55519E",
"A@	c #6664AF",
"B@	c #D6D6E7",
"C@	c #CDCDE3",
"D@	c #7675B6",
"E@	c #7E7DBC",
"F@	c #8483BF",
"G@	c #8786C1",
"H@	c #8A89C3",
"I@	c #7876B2",
"J@	c #43437A",
"K@	c #5F5F85",
"L@	c #29295C",
"M@	c #121247",
"N@	c #39376B",
"O@	c #54519A",
"P@	c #5B57A9",
"Q@	c #5B58AA",
"R@	c #7D7BBA",
"S@	c #D2D1E5",
"T@	c #E9E9F2",
"U@	c #9B99C8",
"V@	c #7C7BBB",
"W@	c #8D8BC4",
"X@	c #8E8DC5",
"Y@	c #8D8CC4",
"Z@	c #8785BE",
"`@	c #48477C",
" #	c #585880",
".#	c #2A2A5C",
"+#	c #101047",
"@#	c #454474",
"##	c #5A5799",
"$#	c #5D5AAA",
"%#	c #7977B7",
"&#	c #9190C3",
"*#	c #8F8EC5",
"=#	c #9594C8",
"-#	c #9796C9",
";#	c #5C5C93",
">#	c #464673",
",#	c #3A3A6A",
"'#	c #0F0F45",
")#	c #393864",
"!#	c #62609C",
"~#	c #6663AC",
"{#	c #5E5CAC",
"]#	c #6765B0",
"^#	c #7A77BA",
"/#	c #9190C6",
"(#	c #9D9CCC",
"_#	c #9F9ECE",
":#	c #9F9ECD",
"<#	c #9C9BCB",
"[#	c #7A79A7",
"}#	c #454572",
"|#	c #2D2E5F",
"1#	c #0D0D45",
"2#	c #44436D",
"3#	c #67669A",
"4#	c #6F6DB2",
"5#	c #6360AE",
"6#	c #605DAC",
"7#	c #6866B1",
"8#	c #8685C1",
"9#	c #9291C7",
"0#	c #9997CA",
"a#	c #9E9DCD",
"b#	c #A09FCE",
"c#	c #9695C3",
"d#	c #484874",
"e#	c #60607C",
"f#	c #1B1B4D",
"g#	c #32325C",
"h#	c #6A6899",
"i#	c #7775B3",
"j#	c #5A57A8",
"k#	c #9B9ACB",
"l#	c #9291C2",
"m#	c #4B4A7E",
"n#	c #222257",
"o#	c #0E0E46",
"p#	c #565675",
"q#	c #666491",
"r#	c #7775B4",
"s#	c #5652A0",
"t#	c #5C59AA",
"u#	c #6361AF",
"v#	c #6D6BB4",
"w#	c #6B6A9F",
"x#	c #25255B",
"y#	c #0B0B44",
"z#	c #2B2B57",
"A#	c #605E8F",
"B#	c #6E6CAC",
"C#	c #6764B0",
"D#	c #53509B",
"E#	c #535098",
"F#	c #615EAE",
"G#	c #6C6AB3",
"H#	c #6C69AF",
"I#	c #24245E",
"J#	c #2D2C5C",
"K#	c #504E86",
"L#	c #605DA8",
"M#	c #5754A1",
"N#	c #525096",
"O#	c #5E5CAB",
"P#	c #413F85",
"Q#	c #0C0C45",
"R#	c #252457",
"S#	c #494784",
"T#	c #57559F",
"U#	c #5D5BAC",
"V#	c #5855A3",
"W#	c #42407B",
"X#	c #3B3977",
"Y#	c #0F0E46",
"Z#	c #201F47",
"`#	c #393869",
" $	c #474583",
".$	c #413F77",
"                      . + @ # $ + %                             ",
"                . . & * = - ; > , ' ) ! %                       ",
"              ~ { ] ^ / ( _ : < [ } | 1 2 # %                   ",
"            3 4 5 6 7 8 9 0 a b c d e f g h $ !                 ",
"        3 i j k l m n o p q r s t t u v w x y z .               ",
"        A B C D E F : G H I J K L M t N O : P Q & .             ",
"      A R S T U V _ w W X Y X Z J ` t N G  ...+.@.#.~           ",
"    A $.%.&.*.=.-.0 ;.>.,.'.).Y !.~.{.b ].^.m /.(._.3           ",
"    $._.:.<.[.}.|.1.2.3.).4.5.6.,.7.8.9.} 0.a.b.c.d.i e.        ",
"  $.f.g.:.<.h.i.j.k.l.m.7.n.o.p.q.r.7.s.t.m u.v.w.x.A y.z.A.    ",
"  B._.R C.&.D.E.F.G.Y H.F.I.J.b K.L.M.N.O.P.Q.R.S.T.U.V.W.X.    ",
"  f.g.R Y.Z.*.`.).k. +.+++Y @+#+$+%+&+*+=+-+;+;+>+,+'+)+!+~+    ",
"  _.R {+%.@.]+^+).k./+(+_+:+<+^.[+}+|+1+2+3+4+5+6+7+8+9+0+      ",
"_.g.{+a+b+c+d+e+f+g+h+i+j+k+l+m+n+o+p+q+r+s+t+u+v+w+x+y+z+      ",
"g.R B a+%.A+B+C+D+g+E+F+G+H+G+I+J+p+K+L+M+N+O+P+Q+R+S+T+U+      ",
"g.R a+V+%.W+Z.X+j.g+Y+Z+`+ @.@F++@@@#@h.$@%@&@*@=@-@;@>@,@      ",
"  {+a+'@)@!@@.~@Y g+{@]@K+`+ @F++@^@/@(@_@:@<@[@}@|@1@2@$.      ",
"  {+a+b+3@4@5@6@r.).7@8@9@J+I+G+0@ @q+a@b@c@d@e@f@g@h@i@B.      ",
"  {+a+%.j@k@l@6.).m@n@u.o@p@E |+q@r@s@t@u@v@w@x@y@z@g._.        ",
"  B a+%.Y.A@B@=+).C@D@E@F@G@H@H@b.}.I@J@K@L@M@N@O@P@Q@_.        ",
"    a+%.Y.W+R@S@T@U@V@G+b.W@X@X@Y@Z@`@ #.#+#@###$#B R g.        ",
"    a+%.Y.W+V+%#&#r+|+*#=#-#-#=#i+;#>#,#'#)#!#~#b+{+R           ",
"      $#%.{#A+]#^#H+/#8 (#_#:#<#[#}#|#1#2#3#4#5#a+{+            ",
"        Y.Y.6#7#K+8#9#0#a#b#%+c#d#e#f#g#h#i#C Y.a+j#            ",
"          b+Y.@.(@+@n+9#0#k#l#m#n#o#p#q#r#]+Y.a+s#              ",
"            t#{#u#v#u.p@W@*#w#x#y#z#A#B#C#W+t#D#                ",
"              E#$#W+F#<.G#H#I#y#J#K#L#{#a+M#                    ",
"                  N#Y.W+O#P#Q#R#S#T#U#V#W#                      ",
"                        X#Y#Z#`# $.$                            ",
"                                                                ",
"                                                                ",
"                                                                "};
