/* XPM */
static char * emacs_16_xpm[] = {
"16 16 155 2",
"  	c None",
". 	c #615DAF",
"+ 	c #6A66B5",
"@ 	c #6D69B6",
"# 	c #6C68B6",
"$ 	c #6460B2",
"% 	c #5955AB",
"& 	c #6B68B4",
"* 	c #807DBE",
"= 	c #9794CA",
"- 	c #9E9CCD",
"; 	c #9D9BCD",
"> 	c #908EC7",
", 	c #6B67B5",
"' 	c #5A56AD",
") 	c #5C58AB",
"! 	c #6A67B2",
"~ 	c #8D8BC4",
"{ 	c #A2A0CF",
"] 	c #C2C1DF",
"^ 	c #C1C0DE",
"/ 	c #B8B6DA",
"( 	c #B3B1D7",
"_ 	c #9D9ACC",
": 	c #7976BB",
"< 	c #5954AB",
"[ 	c #5955A9",
"} 	c #615EAE",
"| 	c #7471B8",
"1 	c #9997CA",
"2 	c #B8B6D9",
"3 	c #F1F0F6",
"4 	c #EBEBF3",
"5 	c #C9C8E2",
"6 	c #B4B3D8",
"7 	c #A09DCD",
"8 	c #8F8DC5",
"9 	c #605CAD",
"0 	c #5A56AA",
"a 	c #6562B0",
"b 	c #8583C0",
"c 	c #F2F2F5",
"d 	c #F0F0F4",
"e 	c #F1F0F7",
"f 	c #DBDAEB",
"g 	c #E9E9F2",
"h 	c #DCDCEC",
"i 	c #A1A0CE",
"j 	c #8E8CC4",
"k 	c #8581BD",
"l 	c #5450A2",
"m 	c #5956AA",
"n 	c #5A57AA",
"o 	c #6461AF",
"p 	c #9694C8",
"q 	c #F7F6F9",
"r 	c #E2E1ED",
"s 	c #BAB9DB",
"t 	c #BBB9DB",
"u 	c #DCDBEB",
"v 	c #D8D7E9",
"w 	c #C3C2DE",
"x 	c #9D9CC5",
"y 	c #4E4C86",
"z 	c #585870",
"A 	c #5B58AB",
"B 	c #605DAD",
"C 	c #8B89C2",
"D 	c #E9E9F3",
"E 	c #A2A1CE",
"F 	c #A6A5CF",
"G 	c #9F9ECB",
"H 	c #8C8AC4",
"I 	c #8482BF",
"J 	c #B6B5D7",
"K 	c #CECCE0",
"L 	c #6E6E8E",
"M 	c #47476C",
"N 	c #1C1B4A",
"O 	c #5B57AA",
"P 	c #5D5AAB",
"Q 	c #5F5DAD",
"R 	c #7D7BBB",
"S 	c #E6E6F1",
"T 	c #9695C8",
"U 	c #8583BF",
"V 	c #7F7DBD",
"W 	c #7977BA",
"X 	c #7471B3",
"Y 	c #72719F",
"Z 	c #414167",
"` 	c #2E2C61",
" .	c #615EAD",
"..	c #8785BF",
"+.	c #A4A3CE",
"@.	c #E3E2EF",
"#.	c #8D8CC3",
"$.	c #7E7DBD",
"%.	c #8280BE",
"&.	c #7674B7",
"*.	c #565590",
"=.	c #42416C",
"-.	c #35346A",
";.	c #4E4B95",
">.	c #8382BE",
",.	c #D4D4E7",
"'.	c #DADAEB",
").	c #8A89C1",
"!.	c #8483C0",
"~.	c #8886C2",
"{.	c #8483BF",
"].	c #6B6AA7",
"^.	c #454574",
"/.	c #28275A",
"(.	c #4E4C92",
"_.	c #5955A7",
":.	c #5D5AAC",
"<.	c #8684BF",
"[.	c #A2A1CD",
"}.	c #8987C2",
"|.	c #9291C7",
"1.	c #9392C7",
"2.	c #7574AA",
"3.	c #494979",
"4.	c #302F62",
"5.	c #545190",
"6.	c #5C59AA",
"7.	c #5E5BAC",
"8.	c #6563AF",
"9.	c #9290C6",
"0.	c #9D9CCC",
"a.	c #9B9ACA",
"b.	c #565582",
"c.	c #2F2F5E",
"d.	c #5B5990",
"e.	c #6562AB",
"f.	c #5B58AA",
"g.	c #5C59A8",
"h.	c #706EB5",
"i.	c #817FBE",
"j.	c #8A88BF",
"k.	c #58578C",
"l.	c #29295C",
"m.	c #58568B",
"n.	c #6765AF",
"o.	c #5A57A5",
"p.	c #5A58A1",
"q.	c #6562AE",
"r.	c #5A589D",
"s.	c #292962",
"t.	c #444380",
"u.	c #5B59A2",
"v.	c #4F4C90",
"w.	c #1B1A46",
"x.	c #1F1E43",
"          . + @ # $             ",
"      % & * = - ; > , '         ",
"    ) ! ~ { ] ^ / ( _ : <       ",
"  [ } | 1 2 3 4 5 6 7 8 9       ",
"  0 a b c d e f g h i j k l     ",
"m n o p q r g s t u v w x y z   ",
"n A B C D E F G H I J K L M N   ",
"O P Q R S T U b V W X Y Z `     ",
"A  ...+.@.#.$.%.$.&.*.=.-.;.    ",
"  P >.,.'.).!.~.{.].^./.(._.    ",
"  :. .<.[.}.|.1.2.3.4.5.6.n     ",
"    7.8.I 9.0.a.b.c.d.e.f.      ",
"      g.h.i.j.k.l.m.n.o.        ",
"        p.q.r.s.t.u.v.          ",
"            w.x.                ",
"                                "};
