/* XPM */
static char *emacs_32[] = {
/* width height ncolors chars_per_pixel */
"32 32 254 2",
/* colors */
"AA c #FFFFFFFFFFFF",
"BA c #EFEFEFEFF7F7",
"CA c #7A7A7878BABA",
"DA c #2B2B2B2B5858",
"EA c #CECECCCCE6E6",
"FA c #424242426C6C",
"GA c #5C5C5858ABAB",
"HA c #75757474AAAA",
"IA c #F1F1F1F1F8F8",
"JA c #74747272B8B8",
"KA c #EDEDECECF6F6",
"LA c #86868484C1C1",
"MA c #56565252ABAB",
"NA c #88888686C2C2",
"OA c #65656262B0B0",
"PA c #C3C3C1C1E0E0",
"AB c #7E7E7C7CBCBC",
"BB c #66666464B1B1",
"CB c #51514E4E9696",
"DB c #78787676BABA",
"EB c #EAEAEAEAF5F5",
"FB c #383835358686",
"GB c #CACAC9C9E4E4",
"HB c #8C8C8A8AC4C4",
"IB c #5E5E5B5BACAC",
"JB c #9A9A9898CBCB",
"KB c #72727070B7B7",
"LB c #80807E7EBEBE",
"MB c #2B2B2B2B6464",
"NB c #C6C6C5C5E2E2",
"OB c #61615D5DB0B0",
"PB c #7B7B7A7AB5B5",
"AC c #8E8E8C8CC5C5",
"BC c #545453539393",
"CC c #494947479090",
"DC c #6E6E6C6CB5B5",
"EC c #52524E4EA9A9",
"FC c #E9E9E9E9F4F4",
"GC c #82828080BFBF",
"HC c #5C5C5A5AABAB",
"IC c #B2B2B1B1D8D8",
"JC c #58585454A9A9",
"KC c #5D5D5A5AACAC",
"LC c #58585454AAAA",
"MC c #525250507A7A",
"NC c #4B4B49498282",
"OC c #AEAEADADD5D5",
"PC c #76767474B9B9",
"AD c #454545456666",
"BD c #1E1E1E1E5454",
"CD c #6B6B6868B3B3",
"DD c #F8F8F8F8FCFC",
"ED c #6C6C6A6AB4B4",
"FD c #64646060AFAF",
"GD c #ECECEAEAF5F5",
"HD c #7D7D7B7BBCBC",
"ID c #71716E6EB6B6",
"JD c #565654549D9D",
"KD c #98989696CACA",
"LD c #040403033B3B",
"MD c #59595555ACAC",
"ND c #656565657D7D",
"OD c #BFBFBEBEDFDF",
"PD c #444443437D7D",
"AE c #6C6C6868B4B4",
"BE c #40403E3E8787",
"CE c #343434346363",
"DE c #69696666B4B4",
"EE c #131312124545",
"FE c #A7A7A5A5D2D2",
"GE c #EDEDEDEDF6F6",
"HE c #494948486E6E",
"IE c #DDDDDDDDEEEE",
"JE c #83838181BFBF",
"KE c #151515154A4A",
"LE c #7A7A7777BBBB",
"ME c #5C5C5858ACAC",
"NE c #8A8A8888C4C4",
"OE c #626262628686",
"PE c #85858282C0C0",
"AF c #55555050ABAB",
"BF c #6C6C6969B4B4",
"CF c #68686666B2B2",
"DF c #68686464B2B2",
"EF c #63636060AFAF",
"FF c #E0E0DFDFF0F0",
"GF c #95959393C8C8",
"HF c #62625E5EB0B0",
"IF c #60605E5EADAD",
"JF c #D7D7D6D6EBEB",
"KF c #D6D6D5D5EBEB",
"LF c #91918E8EC6C6",
"MF c #D3D3D2D2E9E9",
"NF c #C8C8C7C7E4E4",
"OF c #030303032D2D",
"PF c #80807D7DBEBE",
"AG c #73737070B8B8",
"BG c #0C0C0B0B4545",
"CG c #6E6E6C6CB6B6",
"DG c #A2A2A0A0CFCF",
"EG c #6E6E6B6BB4B4",
"FG c #A2A2A1A1D0D0",
"GG c #68686767A6A6",
"HG c #97979595CACA",
"IG c #56565252ACAC",
"JG c #56565353A8A8",
"KG c #595959597F7F",
"LG c #72726F6FB7B7",
"MG c #6E6E6A6AB6B6",
"NG c #6A6A6767B2B2",
"OG c #61615D5DAEAE",
"PG c #57575353AAAA",
"AH c #5B5B5858ABAB",
"BH c #5A5A5656AAAA",
"CH c #5A5A5757AAAA",
"DH c #5E5E5C5CACAC",
"EH c #5F5F5C5CACAC",
"FH c #60605D5DADAD",
"GH c #55555050ACAC",
"HH c #5C5C5959ABAB",
"IH c #59595656AAAA",
"JH c #73737272B7B7",
"KH c #5B5B5757ABAB",
"LH c #F2F2F2F2F8F8",
"MH c #5A5A5858AAAA",
"NH c #F4F4F4F4FAFA",
"OH c #FBFBFBFBFDFD",
"PH c #56565151ACAC",
"AI c #F7F7F6F6FBFB",
"BI c #F0F0F0F0F7F7",
"CI c #61615E5EAEAE",
"DI c #F3F3F3F3F9F9",
"EI c #C0C0BFBFDFDF",
"FI c #ADADAAAAD5D5",
"GI c #F6F6F6F6FBFB",
"HI c #E1E1E0E0F0F0",
"II c #FBFBFBFBFEFE",
"JI c #D8D8D7D7EBEB",
"KI c #B8B8B7B7DBDB",
"LI c #71716F6FB6B6",
"MI c #F2F2F2F2F9F9",
"NI c #DFDFDEDEEFEF",
"OI c #D2D2D1D1E8E8",
"PI c #92928F8FC7C7",
"AJ c #5B5B5858AAAA",
"BJ c #5F5F5D5DADAD",
"CJ c #5F5F5D5DACAC",
"DJ c #D9D9D8D8ECEC",
"EJ c #F7F7F7F7FBFB",
"FJ c #F9F9F9F9FCFC",
"GJ c #F4F4F3F3FAFA",
"HJ c #5E5E5E5E8484",
"IJ c #6E6E6E6E9191",
"JJ c #9C9C9999CCCC",
"KJ c #777777778888",
"LJ c #DBDBDBDBEDED",
"MJ c #87878585C3C3",
"NJ c #828282828F8F",
"OJ c #E6E6E5E5F2F2",
"PJ c #BCBCBBBBDDDD",
"AK c #7B7B7878BBBB",
"BK c #50504E4E8282",
"CK c #F8F8F8F8FEFE",
"DK c #56565252A2A2",
"EK c #6F6F6D6DABAB",
"FK c #5D5D5959AFAF",
"GK c #2C2C2B2B4242",
"HK c #393939395C5C",
"IK c #8B8B8A8AC4C4",
"JK c #F7F7F7F7FCFC",
"KK c #BABAB9B9DBDB",
"LK c #74747070B7B7",
"MK c #6D6D6C6CB2B2",
"NK c #9A9A9B9BA2A2",
"OK c #EBEBEBEBF5F5",
"PK c #63636060B4B4",
"AL c #A1A19E9ECFCF",
"BL c #2F2F2E2E6060",
"CL c #71716F6FA3A3",
"DL c #5A5A5757A8A8",
"EL c #BCBCBCBCCACA",
"FL c #A5A5A3A3D1D1",
"GL c #363636366B6B",
"HL c #383836366666",
"IL c #404040406161",
"JL c #3B3B39396F6F",
"KL c #55555151ABAB",
"LL c #92929090C7C7",
"ML c #6E6E6B6BB6B6",
"NL c #5E5E5B5BABAB",
"OL c #4F4F4C4C8E8E",
"PL c #7B7B7A7AA5A5",
"AM c #9B9B9999CBCB",
"BM c #5F5F5B5BB0B0",
"CM c #9E9E9C9CCDCD",
"DM c #10100E0E2B2B",
"EM c #727272728484",
"FM c #93939090C8C8",
"GM c #464642428383",
"HM c #424242427373",
"IM c #4B4B4B4B7878",
"JM c #78787575BABA",
"KM c #575757576E6E",
"LM c #57575353ACAC",
"MM c #66666363AAAA",
"NM c #DEDEDEDEE8E8",
"OM c #393937377171",
"PM c #F3F3F2F2F9F9",
"AN c #ECECECECF5F5",
"BN c #5E5E5D5D7878",
"CN c #5E5E5E5E7D7D",
"DN c #B5B5B3B3D9D9",
"EN c #B5B5B4B4D9D9",
"FN c #5A5A5656ABAB",
"GN c #40403F3F7E7E",
"HN c #5A5A5757ABAB",
"IN c #D4D4D3D3E9E9",
"JN c #5B5B5757AAAA",
"KN c #8B8B8B8B8F8F",
"LN c #6F6F6E6EB5B5",
"MN c #1B1B1B1B4747",
"NN c #1B1B19195050",
"ON c #D5D5D4D4E9E9",
"PN c #BDBDBDBDDEDE",
"AO c #59595656A9A9",
"BO c #BDBDBCBCDDDD",
"CO c #D0D0CFCFE7E7",
"DO c #E5E5E4E4F1F1",
"EO c #59595555AAAA",
"FO c #E5E5E6E6F3F3",
"GO c #FBFBFCFCFDFD",
"HO c #D1D1D0D0E8E8",
"IO c #56565151AFAF",
"JO c #E7E7E7E7F3F3",
"KO c #5F5F5C5CADAD",
"LO c #90908D8DC5C5",
"MO c #90908D8DC6C6",
"NO c #D0D0D0D0E7E7",
"OO c #DADAD9D9ECEC",
"PO c #656565658181",
"AP c #F6F6F6F6FAFA",
"BP c #F4F4F4F4F9F9",
"CP c #7C7C7C7C8989",
"DP c #6F6F6D6DB5B5",
"EP c #5B5B5858A7A7",
"FP c #70706E6EB5B5",
"GP c #565655557E7E",
"HP c #373734347D7D",
"IP c #BABAB9B9DCDC",
"JP c #3C3C3A3A7272",
"KP c #E3E3E3E3F1F1",
"LP c #B0B0AEAED7D7",
"MP c #81817F7FBEBE",
"NP s bg c None",
/* pixels */
"NPNPNPNPNPNPNPNPNPNPNPNPNPNPNPNPNPNPNPNPNPNPNPNPNPNPNPNPNPNPNPNP",
"NPNPNPNPNPNPNPNPNPNPNPNPNPNPPHGHGHGHNPNPNPNPNPNPNPNPNPNPNPNPNPNP",
"NPNPNPNPNPNPNPNPNPNPIGMAMAMALMMDMDMDLMPHAFGHNPNPNPNPNPNPNPNPNPNP",
"NPNPNPNPNPNPNPNPMAMAPGLCMEHFDFBFMLEGAEDFBMMDKLPHNPNPNPNPNPNPNPNP",
"NPNPNPNPNPNPNPMALCJCBHOGAEAGJMHDPFPFPFHDPCMGOBPGKLNPNPNPNPNPNPNP",
"NPNPNPNPNPNPPGLCEOGAFDEGPCLELBJEPENANALFFMLBAGOALCPHNPNPNPNPNPNP",
"NPNPNPNPNPPGJCEOKCBBIDDBHBEIEANFICKDACLFFGDNFINAEFECMANPNPNPNPNP",
"NPNPNPNPLCJCIHHHOALGAKLBPANHBAIAIAOJGBFLHBMOFEEAPAAKECKLNPNPNPNP",
"NPNPNPEOJCEOGACIEGLEGCNEEAGEFCANIAAPFJBIOIJJHDDBCOEJALECMANPNPNP",
"NPNPNPEOAOBHKCOALKABLAIKNBBAFCOKEANBJIOKOHGEHOFIGBGIFJPIECNPNPNP",
"NPNPEOEOBHCHKCBBPCMPNAACOCKAGDFCFEKDJBFGPAFCOHFJLHBAAAKIIOBENPNP",
"NPNPEOCHCHCHIHCFLELBLAHBGFINBAGEODKDKDPILALOLPEAFFNIODJAFBGPKNNP",
"NPNPIHJNAJJCAMDJIEJIEAENGFHGLJBANIKDLLACLALECDCFBFCFFKFBDANKGKNP",
"NPNPBHAHJGAGOKAIDILHGJMIFFPNPJDOKAOCLALAHDJHBFBBCIOBBEBDNJHEDMNP",
"NPBHCHAHJGLEFCOKBIBAIAPMDIAIEBHIEBONGCDBKBEGCDDFDEBEBDKJADNNJLNP",
"NPBHAHHHAHEHGBGEGENHNOCMDGOCEIJIKPGEKIDPDPEGCDDECCBLCPILBGGMCBNP",
"NPCHAHHHKCJGACOKEBJKAMCJEDDCLICAIKIPHINABFEDBFJDMBEMDALDJPDKFNNP",
"NPCHAHHHKCHHIBPABIBPKKOALIJHJHJHLNFPMJGCEDMLBBBKNDHKLDDACBKHEONP",
"NPKHHHKCKCIBMHNGEALHANHBCFKBKBJAJAJHDPDCDPOAGNPOKMKEDAOLCHHNEONP",
"NPNPHHKCIBDHEHMHDCOIEJIEHDDPJMLECACADBPCFPPDOEFALDHLCBDLAHCHEONP",
"NPNPGAKCIBDHBJIFMHLIDJIINFKBDBABLBPFABLBBCKGOELDNNOLHHHHAHBHNPNP",
"NPNPGAKCIBDHBJFHCIHCMPFODDNBJEABJEJEMJGGIMHJBGKENCEPKCHHAHBHNPNP",
"NPNPNPKCIBEHIBHCCIBBBBJBBIGOKFNAGCNEPBHMOEEEEEBKMMHFKCGAAHBHNPNP",
"NPNPNPHHIBIBIDPCIBEFKBJAEIGIIIMFACPBGLKGBDKEGPEKDPEFHHHHAHNPNPNP",
"NPNPNPNPKCKCCILFFGLOJEMPAMBANHOHNBPDFABLLDMCHACACGFHHHHHKHNPNPNP",
"NPNPNPNPKCIBNLAJAKICINKFJFGEIAAAELCNCELDHEHAPFDBBBHHHHAHNPNPNPNP",
"NPNPNPNPNPKCIBDHCJNGNABOJOMICKNMFADAILHEHAGCCANGIBHHGANPNPNPNPNP",
"NPNPNPNPNPNPKCDHFHEFDEJAHBICOOIJBGMNBNCLHDJHBBIBHHHHNPNPNPNPNPNP",
"NPNPNPNPNPNPNPKCDHEHKOOABFAGGGKELDNDPLMKCDFHKCKCHHNPNPNPNPNPNPNP",
"NPNPNPNPNPNPNPNPIBIBEHDHHFOAMBLDBLBCEHFHIBKCIBNPNPNPNPNPNPNPNPNP",
"NPNPNPNPNPNPNPNPNPNPNPPKHFHPBGOMJDHCIBIBKCNPNPNPNPNPNPNPNPNPNPNP",
"NPNPNPNPNPNPNPNPNPNPNPNPNPOFDMNPNPNPNPNPNPNPNPNPNPNPNPNPNPNPNPNP"};
