/* XPM */
static char *emacs_48[] = {
/* width height ncolors chars_per_pixel */
"48 48 256 2",
/* colors */
"AA c #6D6D6A6AB4B4",
"BA c #72727070B7B7",
"CA c #74747272B8B8",
"DA c #5A5A58588E8E",
"EA c #B6B6B5B5D9D9",
"FA c #69696666B2B2",
"GA c #65656262B0B0",
"HA c #343434345959",
"IA c #E1E1E1E1F0F0",
"JA c #151515154848",
"KA c #D5D5D4D4EAEA",
"LA c #EDEDECECF6F6",
"MA c #88888686C2C2",
"NA c #F2F2F2F2F9F9",
"OA c #787878789898",
"PA c #78787676B9B9",
"AB c #57575252ABAB",
"BB c #8E8E8C8CC5C5",
"CB c #7C7C7A7ABCBC",
"DB c #F0F0F0F0F8F8",
"EB c #82828080BFBF",
"FB c #787877778888",
"GB c #92929292A9A9",
"HB c #5F5F5C5CACAC",
"IB c #6E6E6C6CB4B4",
"JB c #7E7E7C7CBDBD",
"KB c #86868484C1C1",
"LB c #010101013838",
"MB c #696966669C9C",
"NB c #73737171A9A9",
"OB c #CECECDCDE6E6",
"PB c #D2D2D1D1E9E9",
"AC c #84848383C0C0",
"BC c #373736367C7C",
"CC c #79797777BABA",
"DC c #E9E9E8E8F4F4",
"EC c #E6E6E6E6F3F3",
"FC c #454544446969",
"GC c #55555151ACAC",
"HC c #5D5D5A5AACAC",
"IC c #545450509C9C",
"JC c #5A5A5555ADAD",
"KC c #5B5B5858ABAB",
"LC c #282827276464",
"MC c #90908E8EC6C6",
"NC c #58585454A9A9",
"OC c #C2C2C1C1E0E0",
"PC c #F4F4F4F4FAFA",
"AD c #64646161AFAF",
"BD c #5B5B5959A7A7",
"CD c #A6A6A5A5D2D2",
"DD c #FEFEFEFEFFFF",
"ED c #77777474B9B9",
"FD c #EEEEEDEDF6F6",
"GD c #8C8C8A8AC4C4",
"HD c #676767677E7E",
"ID c #DADAD9D9ECEC",
"JD c #6A6A6868B3B3",
"KD c #E8E8E8E8F3F3",
"LD c #AFAFADADD6D6",
"MD c #2C2C2A2A5C5C",
"ND c #92929090C7C7",
"OD c #70706E6EB6B6",
"PD c #58585454AAAA",
"AE c #858585858888",
"BE c #1B1B1B1B5353",
"CE c #888888888F8F",
"DE c #272726264949",
"EE c #6E6E6A6AA9A9",
"FE c #535352529292",
"GE c #646464648484",
"HE c #3A3A3A3A6B6B",
"IE c #80807E7EBEBE",
"JE c #51514D4D9696",
"KE c #222222225353",
"LE c #BEBEBDBDDEDE",
"ME c #EAEAE9E9F4F4",
"NE c #94949393C8C8",
"OE c #C5C5C4C4E2E2",
"PE c #BABAB8B8DDDD",
"AF c #74747373B6B6",
"BF c #A2A2A1A1D0D0",
"CF c #59595555A5A5",
"DF c #85858585A2A2",
"EF c #353534346464",
"FF c #9E9E9C9CCDCD",
"GF c #7C7C7979BBBB",
"HF c #67676464B1B1",
"IF c #62626060AEAE",
"JF c #444442427B7B",
"KF c #3F3F3E3E7171",
"LF c #090909094141",
"MF c #A3A3A3A3A4A4",
"NF c #8B8B8989C4C4",
"OF c #F8F8F8F8FCFC",
"PF c #ADADADADB6B6",
"AG c #636361618B8B",
"BG c #5D5D5D5D7E7E",
"CG c #9A9A9898CBCB",
"DG c #ECECEAEAF5F5",
"EG c #60605F5F8787",
"FG c #464644447777",
"GG c #96969494C9C9",
"HG c #F0F0F0F0F7F7",
"IG c #9D9D9B9BCCCC",
"JG c #54545252A7A7",
"KG c #52524E4EA7A7",
"LG c #979797979E9E",
"MG c #DFDFDEDEEEEE",
"NG c #A2A2A0A0CFCF",
"OG c #464644448484",
"PG c #5C5C5A5AABAB",
"AH c #62625E5EAEAE",
"BH c #4C4C49498F8F",
"CH c #60605E5EADAD",
"DH c #EEEEEEEEF8F8",
"EH c #E4E4E3E3F1F1",
"FH c #F6F6F6F6FBFB",
"GH c #484845458C8C",
"HH c #F4F4F4F4F9F9",
"IH c #80807F7FBCBC",
"JH c #B2B2B1B1D7D7",
"KH c #A4A4A2A2D1D1",
"LH c #A0A09E9ECECE",
"MH c #8A8A8787C3C3",
"NH c #585856569D9D",
"OH c #3B3B39398383",
"PH c #98989696CACA",
"AI c #FAFAFBFBFDFD",
"BI c #ABABAAAAD3D3",
"CI c #5F5F5C5CADAD",
"DI c #60605E5EAEAE",
"EI c #ECECECECF5F5",
"FI c #62625F5FB1B1",
"GI c #72726F6FB7B7",
"HI c #5A5A5757A8A8",
"II c #F0F0EFEFF7F7",
"JI c #545454547C7C",
"KI c #69696565B4B4",
"LI c #3D3D3D3D6161",
"MI c #F6F6F6F6FCFC",
"NI c #5E5E5A5AACAC",
"OI c #E5E5E5E5F2F2",
"PI c #70706C6CB6B6",
"AJ c #70706E6EB5B5",
"BJ c #2C2C2C2C5252",
"CJ c #57575555A9A9",
"DJ c #80807D7DBEBE",
"EJ c #7B7B7878BCBC",
"FJ c #4F4F4E4E7B7B",
"GJ c #F8F8F7F7FBFB",
"HJ c #F4F4F3F3FAFA",
"IJ c #F1F1F1F1F8F8",
"JJ c #6C6C6868B5B5",
"KJ c #58585656A9A9",
"LJ c #D8D8D7D7EBEB",
"MJ c #5E5E5A5AABAB",
"NJ c #262626265858",
"OJ c #6B6B6969B3B3",
"PJ c #CACACACAE4E4",
"AK c #57575353A8A8",
"BK c #81817F7FBFBF",
"CK c #7F7F7E7EBABA",
"DK c #A9A9A7A7D3D3",
"EK c #61615D5DAFAF",
"FK c #1F1F1E1E6262",
"GK c #54545050A8A8",
"HK c #6F6F6D6DB5B5",
"IK c #5E5E5A5AAFAF",
"JK c #5C5C5959ACAC",
"KK c #5C5C5959ABAB",
"LK c #5B5B5757AAAA",
"MK c #5A5A5656AAAA",
"NK c #5A5A5757AAAA",
"OK c #5C5C5858ABAB",
"PK c #5D5D5959ABAB",
"AL c #EEEEEEEEF7F7",
"BL c #EFEFEFEFF7F7",
"CL c #59595656AAAA",
"DL c #56565151ACAC",
"EL c #EFEFEEEEF7F7",
"FL c #5B5B5757ABAB",
"GL c #ECECEBEBF5F5",
"HL c #EEEEEEEEF6F6",
"IL c #EBEBEAEAF5F5",
"JL c #EAEAEAEAF4F4",
"KL c #EAEAEAEAF5F5",
"LL c #EAEAEBEBF4F4",
"ML c #55555151ABAB",
"NL c #62625E5EADAD",
"OL c #E4E4E4E4F1F1",
"PL c #EBEBEBEBF4F4",
"AM c #7F7F7D7DBDBD",
"BM c #C4C4C3C3E1E1",
"CM c #F5F5F5F5FAFA",
"DM c #EFEFEEEEF6F6",
"EM c #FAFAF9F9FEFE",
"FM c #F3F3F3F3F9F9",
"GM c #B0B0B0B0AFAF",
"HM c #BCBCBCBCBEBE",
"IM c #E7E7E7E7F3F3",
"JM c #E9E9EAEAF4F4",
"KM c #4A4A4A4A7777",
"LM c #57575353ABAB",
"MM c #F8F8F8F8FBFB",
"NM c #E0E0E0E0F0F0",
"OM c #C2C2C2C2D1D1",
"PM c #5F5F5C5CA7A7",
"AN c #5E5E5C5C9292",
"BN c #5A5A58589898",
"CN c #C0C0BFBFDFDF",
"DN c #DBDBDADAEDED",
"EN c #B0B0AFAFD7D7",
"FN c #000000001F1F",
"GN c #64646161B0B0",
"HN c #65656262B4B4",
"IN c #9C9C9A9ACBCB",
"JN c #6F6F6D6DB1B1",
"KN c #6F6F6C6CB8B8",
"LN c #DFDFDEDEE4E4",
"MN c #494947477272",
"NN c #6F6F70708888",
"ON c #83838181BFBF",
"PN c #79797777B5B5",
"AO c #4F4F50507777",
"BO c #F5F5F6F6FBFB",
"CO c #BCBCBABADCDC",
"DO c #7D7D7B7BB6B6",
"EO c #343432327070",
"FO c #393936366F6F",
"GO c #F1F1F2F2F9F9",
"HO c #C8C8C6C6E3E3",
"IO c #6E6E6D6D9090",
"JO c #505050507474",
"KO c #5A5A5A5A7373",
"LO c #59595555AAAA",
"MO c #4F4F4C4C9595",
"NO c #71716F6FB5B5",
"OO c #70706F6FA0A0",
"PO c #EEEEEFEFF8F8",
"AP c #5B5B5656ACAC",
"BP c #5A5A5757ABAB",
"CP c #65656363A8A8",
"DP c #ACACABABD5D5",
"EP c #CCCCCBCBE5E5",
"FP c #68686363B3B3",
"GP c #92929090C8C8",
"HP c #5D5D5959AEAE",
"IP c #EBEBEAEAF4F4",
"JP c #E0E0DFDFEFEF",
"KP c #484846468787",
"LP c #4D4D4B4B8787",
"MP c #5D5D5858ABAB",
"NP c #535353536969",
"OP c #5E5E5B5BACAC",
"PP s bg c None",
/* pixels */
"PPPPPPPPPPPPPPPPPPPPPPPPPPPPPPPPPPPPPPPPDLDLDLDLGCDLDLPPPPPPPPPPPPPPPPPPPPPPPPPPPPPPPPPPPPPPPPPP",
"PPPPPPPPPPPPPPPPPPPPPPPPPPPPPPPPPPDLDLDLDLDLDLDLDLDLDLDLDLGCGCPPPPPPPPPPPPPPPPPPPPPPPPPPPPPPPPPP",
"PPPPPPPPPPPPPPPPPPPPPPPPPPPPABABABABABABLMJCJCAPJCJCJCLMABMLGCDLDLPPPPPPPPPPPPPPPPPPPPPPPPPPPPPP",
"PPPPPPPPPPPPPPPPPPPPPPPPABABABLMLMPDAPHPEKGNGAKIKIKIFPHNFIIKJCABMLDLDLPPPPPPPPPPPPPPPPPPPPPPPPPP",
"PPPPPPPPPPPPPPPPPPPPABABABLMLMPDMKIKGNFAAAGIBAEDEDEDEDEDBAKNKIFIFLABDLDLDLPPPPPPPPPPPPPPPPPPPPPP",
"PPPPPPPPPPPPPPPPPPABLMLMLMNCMKPKIFKIPICAPAGFCBJBIEIEIEIEDJJBEJCAAAGAAPDLABABPPPPPPPPPPPPPPPPPPPP",
"PPPPPPPPPPPPPPPPLMLMLMNCCLLKCIGAOJGIPAGFJBDJONKBMAMAMAMAMHGDBKJBCBEDAAEKLMABABPPPPPPPPPPPPPPPPPP",
"PPPPPPPPPPPPPPLMPDPDNCMKJKCHFAIBCACCGFACNDNEMCNFNFBBBBBBBBCDDKLHMAEJCCODFIPDABABABPPPPPPPPPPPPPP",
"PPPPPPPPPPPPLMPDPDCJLOMPAHFAHKEDCBJBNDKADCMEEHPBDKNDBBNDGPMCNELEMGPEACGIFAEKPDABABPPPPPPPPPPPPPP",
"PPPPPPPPPPPDPDNCLOCLKCCHHFPICAGFDJNFIDDBILEIFDFMELKAEALHMCNDMCKBDKPBLJCONDJJLMABABABPPPPPPPPPPPP",
"PPPPPPPPPDNCNCNCMKOKCIGAIBCAGFBKEBNGLADCDCJLPLGLHLNAHHMELECGBBBBMABKCGNMDDKAMHKGKGLMABPPPPPPPPPP",
"PPPPPPPPNCNCLOLOFLNIAHJDBACCIEKBKBCDILMEMEJLPLEIDBIJHGIJHJECOBKHMAIECCGFLEAINAHOPIKGLMABPPPPPPPP",
"PPPPPPCJLOLOCLMKOKCIGAIBEDJBONMHNFKHMEMEDCMEILALIAJPLLNAHJNACMBLOBJHPHGFGDEIDBDDKALOGKLMPPPPPPPP",
"PPPPPPLOLOCLMKMKHCIFFAGICCIEKBNFMCIGOLKLMEMEELDNLHIGCDPEDNIJPCDBNABOIJEHIMFDFDLAOFNGKGPDLMPPPPPP",
"PPPPLOCLMKMKNKNKMJADJDCAGFBKKBBBNDNDEPFDMEMEIIPBINFFINPHPHCDHOFDCMELHLDBBLGLGLEIOFBMGKPDJCPPPPPP",
"PPPPLOMKMKNKLKKCOPGAAACACBONMABBNDNDBFOIILMELAEHBFFFIGCGGGBBMHIGEPMEFMNAFDGLFDMIIJACGKNCBCKOPPPP",
"PPPPCLMKNKLKLKKKMKCLCHJDNOCCDJMAMCNENDEPDBDCMEFDJHPHCGPHNEMCNFEBGFKBLDLJDGFMALPBNFGKFLFKDEGMPFPP",
"PPCLMKNKLKKCKCNCPINELDEAEALDCDFFPHMCBBKHIAPLKDHLOBNEGGNEMCGDMAEBCBBAHFJJGFMHGFPKGKNCFKJALGPFBJPP",
"PPMKMKNKLKKCAKAANMGJGJFHCMHHFMALOLOBKHGDINOIEIDCFDJHBBMCGDMAEBCBEDHKFAGNOPBPCLPKCJBELFAEHMKEFNPP",
"PPMKNKLKKCFLAKEANAPLBLIIBLHLFDFDALDBPLIDCNEANMMEPLPBMAMHKBBKGFCAHKJDFAGAADNLIFCFFKLFFBMFNJBEDEPP",
"MKNKLKKCOKKCCJLEBLKDLAHGBLFDFDFDLAEIEIALDBKAPBECECIMLHCBAMCCCAHKAAJDFAGAIFGNHIBEJAHDMFLILBFOEFPP",
"MKMKLKKCOKKKJGNEGLECKLELHGELBLFMIIELHLFDPOBLKDEHEHIMKAJBCABAODIBAAOJFAGAGACHFKJABGMFBJLBMDKPOGPP",
"NKLKKCKCOKKKHIHFLJKDKDEIIINAECKHNEGGIGCDENEPECLAKDEHMEENAABAAJIBAAJDHFHFGNLCKENNCEBJLBKEJFICJEPP",
"NKLKKCOKKKHCHCAKLDFDECMEFDAIBMCHOJHKODNONOEDGDBIOCKAPLDNEDIBODAAOJFAFAGAEOKEGECEHALBBEKFMOAKCJPP",
"NKKCKCKKKKPKHCKCIFPJJLIMKLOFOCADHKODBACACACABAHKBACCNGPBEAAAHKAAJDFAJJBCKEGEAEJALBJAHEBHAKLOLOPP",
"LKFLOKKKPKHCOPOPJGKBJMKDMEIJMGAAOJODBABACACACACAAFBAOJBANDCAIBAAJDJDBNMNBGFBHALBLFEFKPICMKMKLOPP",
"LKFLOKKKHCHCOPOPHBCJCGGLMEIPHHLDGAHKNOBABABACACACACABANOOJHKIBOJAAHBMDGEAEHALBLFMDOGICHIMKMKLOPP",
"PPKCKKKKPKHCOPOPHBOPKJNGEIJLFDFMBBADHKNOBABACACACACACABABAAJAAAANHLCEGFBHALIBJMDJFICHILKNKCLLOPP",
"PPKCOKKKHCHCOPOPHBCIHBCJCDALLLNADNCBAACACAEDPACCCCCCPAEDEDBANOOJLCAOOALILBJAFCJFJEHIKCLKMKCLPPPP",
"PPOKOKKKHCHCOPHBHBCICHHBKCDPIJLLFHIDNOBACCEJGFCBCBCBCBGFCCPAAFLCJIDFHELBLBMDJFICHIOKKCLKNKCLPPPP",
"PPOKKKPKHCOPOPOPHBCHCHCHCIOPKHNAFDPCPBJBEDJBAMDJIEIHAMJBJBIEOGKFOAFJLFLBNJJFICBDKKKKKCLKNKMKPPPP",
"PPPPKKPKHCOPOPOPHBCHCHCHIFIFGAOCDBALAIHOBKCBBKEBEBEBEBEBACFEMDDFJIJALBBEMNFEHIPGKKKKKCLKNKPPPPPP",
"PPPPKKPKHCOPOPOPHBCHCHCHCHGAFAFAPBFHDMAIMGONAMACACACACMANBKEIOIOJALBBEMNFEPMOPHCKKKKKCLKNKPPPPPP",
"PPPPKKPKHCOPOPOPOPCICHCHIFHFAAOJNDIMIJIJAIOEACONKBKBMADONJJIOAMDLBLFFCDACPGANLHCKKKKKCLKNKPPPPPP",
"PPPPPPKKHCHCHCIFGAOPNKHBADFAIBCAIBNGCMIJNADDPJEBMAMAGDKFEFOAHELBJAFCDAEEIBJDIFHCKKOKKCLKPPPPPPPP",
"PPPPPPKKPKHCOPCIBANDGDHFNKGANOGFIEACLJPCGOCMMMBMNFMCKFNJIOHELBLFFCEGEEAFGIJDAHKKKKOKFLLKPPPPPPPP",
"PPPPPPPPKKHCOPHCCLJDFFEACDMCACONACIECDDBNAHHFHEMPEANJABGFGLBLFLIAGNBCCPANOHFHBKKKKOKFLPPPPPPPPPP",
"PPPPPPPPPPHCOPOPHBPGKJIBLDEHEHKAOELEPBBLIJFMHHEMLNBGKMHELBLBLIAGNBCBJBEDAAAHKKKKKKKCPPPPPPPPPPPP",
"PPPPPPPPPPHCHCOPOPHBHBHBGAKBJHOLNAPOALEIALDBPCGJJOBGFBKELBHAAGNBCKAMCCODGNHCPKKKKKKCPPPPPPPPPPPP",
"PPPPPPPPPPPPHCHCOPHBHBDIHFAABAMCOCIABLFDEIDHOFGBNJEFBJHDHAEGNBIHIEGFGIHFOPHCKKKKOKPPPPPPPPPPPPPP",
"PPPPPPPPPPPPPPHCOPOPOPHBIFFANOEDCBMCCOMECMOFOMBEMDLFLBHAEGNBCKIECCNOGAOPHCHCKKOKPPPPPPPPPPPPPPPP",
"PPPPPPPPPPPPPPPPOPOPOPHBHBCHHFHKEDGFJBCGCNJPIOBELFLBNPNNMBPNGFCAAAADOPHCHCPKKKPPPPPPPPPPPPPPPPPP",
"PPPPPPPPPPPPPPPPPPOPOPOPHBHBHBDIGAOJGICACCFEJAJALBFCLGOOJNNOAAADOPHCHCHCKKPPPPPPPPPPPPPPPPPPPPPP",
"PPPPPPPPPPPPPPPPPPPPPPOPOPHBHBHBCIDIIFGAGALCLFLBNJFJBNPMADIFCIOPOPHCHCHCPPPPPPPPPPPPPPPPPPPPPPPP",
"PPPPPPPPPPPPPPPPPPPPPPPPOPOPHBHBHBHBHBIFOHLFLBKEFGJEBDOPOPOPOPOPOPHCPPPPPPPPPPPPPPPPPPPPPPPPPPPP",
"PPPPPPPPPPPPPPPPPPPPPPPPPPPPOPOPCIFIHNGHLFLBMDJFJEBDOPOPOPOPOPHCPPPPPPPPPPPPPPPPPPPPPPPPPPPPPPPP",
"PPPPPPPPPPPPPPPPPPPPPPPPPPPPPPPPPPPPKPBELFEOLPNHBDOPOPOPOPPPPPPPPPPPPPPPPPPPPPPPPPPPPPPPPPPPPPPP",
"PPPPPPPPPPPPPPPPPPPPPPPPPPPPPPPPPPPPPPFNPPPPPPPPPPPPPPPPPPPPPPPPPPPPPPPPPPPPPPPPPPPPPPPPPPPPPPPP"};
