/* XPM */
static char *emacs_16[] = {
/* width height ncolors chars_per_pixel */
"16 16 166 2",
/* colors */
"AA c #FFFFFFFFFFFF",
"BA c #5B5B5858ABAB",
"CA c #5E5E5B5BACAC",
"DA c #5B5B5757ABAB",
"EA c #5A5A5656AAAA",
"FA c #5A5A5757AAAA",
"GA c #7F7F7D7DBDBD",
"HA c #58585454A9A9",
"IA c #61615D5DADAD",
"JA c #D1D1D0D0E7E7",
"KA c #9A9A9898CBCB",
"LA c #90908E8EC6C6",
"MA c #59595555AAAA",
"NA c #DBDBDADAEDED",
"OA c #55555151ABAB",
"PA c #A7A7A6A6D2D2",
"AB c #80807E7EBDBD",
"BB c #6D6D6B6BB4B4",
"CB c #59595656AAAA",
"DB c #59595555A9A9",
"EB c #56565252AAAA",
"FB c #74747373B7B7",
"GB c #64646161AFAF",
"HB c #6A6A6868B3B3",
"IB c #6E6E6B6BB5B5",
"JB c #E4E4E4E4F1F1",
"KB c #57575555A9A9",
"LB c #D4D4D3D3E9E9",
"MB c #A6A6A4A4D1D1",
"NB c #8A8A8888C3C3",
"OB c #5E5E5C5CACAC",
"PB c #6E6E6B6BB3B3",
"AC c #6C6C6A6AB3B3",
"BC c #64646161B0B0",
"CC c #60605D5DACAC",
"DC c #5E5E5A5AACAC",
"EC c #5D5D5B5BACAC",
"FC c #57575353ABAB",
"GC c #57575353AAAA",
"HC c #75757373B7B7",
"IC c #ECECEBEBF5F5",
"JC c #56565353A8A8",
"KC c #C5C5C4C4E1E1",
"LC c #A3A3A1A1D0D0",
"MC c #A4A4A2A2D0D0",
"NC c #75757272B7B7",
"OC c #8D8D8C8CC4C4",
"PC c #B0B0AEAED6D6",
"AD c #C6C6C5C5E2E2",
"BD c #83838282BFBF",
"CD c #E1E1E1E1F0F0",
"DD c #F3F3F3F3F9F9",
"ED c #88888686C2C2",
"FD c #F1F1F1F1F8F8",
"GD c #59595454A9A9",
"HD c #75757171B8B8",
"ID c #A9A9A8A8D3D3",
"JD c #E1E1E2E2F0F0",
"KD c #F1F1F0F0F8F8",
"LD c #CECECECEE6E6",
"MD c #57575353ACAC",
"ND c #58585555AAAA",
"OD c #60605E5EAEAE",
"PD c #62626060AFAF",
"AE c #B8B8B7B7DADA",
"BE c #E8E8E8E8F4F4",
"CE c #72727070B6B6",
"DE c #E9E9E8E8F3F3",
"EE c #F2F2F1F1F8F8",
"FE c #D5D5D5D5E9E9",
"GE c #D3D3D3D3E8E8",
"HE c #5B5B5858AAAA",
"IE c #5A5A5757ABAB",
"JE c #56565151ABAB",
"KE c #72726E6EB6B6",
"LE c #69696666B1B1",
"ME c #FDFDFDFDFEFE",
"NE c #82828080BFBF",
"OE c #FDFDFEFEFFFF",
"PE c #84848282BFBF",
"AF c #6F6F6E6EB5B5",
"BF c #58585656A9A9",
"CF c #7C7C7A7ABBBB",
"DF c #77777575B9B9",
"EF c #58585454ACAC",
"FF c #58585353A9A9",
"GF c #6B6B6969B3B3",
"HF c #8D8D8B8BC4C4",
"IF c #8D8D8A8AC4C4",
"JF c #78787676B9B9",
"KF c #79797777B9B9",
"LF c #92929090C7C7",
"MF c #73737070B8B8",
"NF c #66666464B0B0",
"OF c #64646262AFAF",
"PF c #60605C5CAEAE",
"AG c #9A9A9898CACA",
"BG c #D0D0CFCFE7E7",
"CG c #6F6F6D6DB5B5",
"DG c #E5E5E4E4F1F1",
"EG c #60605D5DADAD",
"FG c #56565454A9A9",
"GG c #7B7B7979BBBB",
"HG c #52524E4EA8A8",
"IG c #95959393C8C8",
"JG c #8F8F8C8CC6C6",
"KG c #5F5F5D5DADAD",
"LG c #53535050A6A6",
"MG c #96969595C9C9",
"NG c #C3C3C1C1E0E0",
"OG c #CECECDCDE6E6",
"PG c #C9C9C8C8E4E4",
"AH c #7E7E7D7DBCBC",
"BH c #71716F6FB6B6",
"CH c #63635F5FB0B0",
"DH c #7E7E7C7CBCBC",
"EH c #CDCDCCCCE6E6",
"FH c #4E4E4949A6A6",
"GH c #A5A5A4A4D0D0",
"HH c #8A8A8989C2C2",
"IH c #8E8E8B8BC5C5",
"JH c #86868585C0C0",
"KH c #E2E2E1E1F0F0",
"LH c #68686464B3B3",
"MH c #65656262AFAF",
"NH c #55555252A7A7",
"OH c #5F5F5B5BACAC",
"PH c #67676464B1B1",
"AI c #71716E6EB6B6",
"BI c #86868484C1C1",
"CI c #56565252A9A9",
"DI c #D6D6D5D5EAEA",
"EI c #65656363B0B0",
"FI c #73737272B6B6",
"GI c #E0E0E0E0EFEF",
"HI c #9C9C9999CCCC",
"II c #C4C4C3C3E0E0",
"JI c #BFBFBDBDDEDE",
"KI c #91918E8EC6C6",
"LI c #57575555A8A8",
"MI c #D7D7D6D6EAEA",
"NI c #ECECECECF5F5",
"OI c #68686666B1B1",
"PI c #5B5B5757AAAA",
"AJ c #82828181BEBE",
"BJ c #7A7A7878BBBB",
"CJ c #5C5C5858ABAB",
"DJ c #5C5C5A5AABAB",
"EJ c #5F5F5C5CACAC",
"FJ c #7D7D7B7BBCBC",
"GJ c #54544F4FABAB",
"HJ c #D8D8D8D8EBEB",
"IJ c #A2A29F9FCFCF",
"JJ c #68686565B1B1",
"KJ c #6A6A6666B1B1",
"LJ c #EEEEEEEEF6F6",
"MJ c #E5E5E5E5F2F2",
"NJ c #6A6A6767B2B2",
"OJ c #F0F0F0F0F8F8",
"PJ c #C8C8C7C7E3E3",
"AK c #55555151A7A7",
"BK c #58585454A8A8",
"CK c #52524D4DAAAA",
"DK c #5D5D5A5AACAC",
"EK c #5C5C5959ABAB",
"FK s bg c None",
/* pixels */
"FKFKFKFKFKOAJEMDEFOAGJFKFKFKFKFK",
"FKFKFKEBCIDAGBIBHDMFLHFCCKFKFKFK",
"FKFKGCFFIAKEIHHILAIFAGLFCHFHFKFK",
"FKHAGDOHAIKIKHNIDGPJPAIJKCJGHGFK",
"FKHAIEJJFJKAICBEIIJAJBNAOJEEPFFK",
"DBFALIEIGABINGLJGHHFLAMCPCNBBKEB",
"EANHBJEHMIJAJICDGEBDNCOFCBAKMAHA",
"HELGKAMEDDNALDBGMJMBKJLEPDEKFADB",
"PICBPHFEFDGGOIHCPEIGBBNFEGEKDAMA",
"BADKNDFBJDADHBFIFBAFPBMHCAEKBAEA",
"BADKKGKBCEGIPGCFAHABJFBBODEKBAEA",
"FKDKEJCCOBGADELBJHAJABKFGFDKFAFK",
"FKEKDCACOCMGAEOEHJHHNEGANJEKDAFK",
"FKFKDKCADFPADIKDAAOGDHBHCACJFKFK",
"FKFKFKECEKIACGEDIDLCBCDJEKFKFKFK",
"FKFKFKFKFKDKEKBFJCFGEKFKFKFKFKFK"};
