/* XPM */
static char *emacs_48[] = {
/* width height ncolors chars_per_pixel */
"48 48 256 2",
/* colors */
"AA c #4B4B49498686",
"BA c #90908E8EC6C6",
"CA c #80807E7EBEBE",
"DA c #E8E8E8E8F3F3",
"EA c #65656262B0B0",
"FA c #6D6D6A6AB4B4",
"GA c #78787676B9B9",
"HA c #010101013737",
"IA c #7E7E7C7CBCBC",
"JA c #75757272B8B8",
"KA c #E9E9E9E9F4F4",
"LA c #8D8D8B8BC4C4",
"MA c #858585859494",
"NA c #A8A8A8A8A8A8",
"OA c #F2F2F2F2F8F8",
"PA c #7C7C7A7ABCBC",
"AB c #282828286666",
"BB c #414141416C6C",
"CB c #FBFBFBFBFEFE",
"DB c #5C5C5858ABAB",
"EB c #BCBCBBBBDDDD",
"FB c #E0E0E0E0EFEF",
"GB c #93939191C7C7",
"HB c #222222225656",
"IB c #72727070B6B6",
"JB c #95959393C8C8",
"KB c #E3E3E2E2F0F0",
"LB c #8E8E8C8CC5C5",
"MB c #66666464B1B1",
"NB c #79797777BABA",
"OB c #EDEDECECF6F6",
"PB c #555553539A9A",
"AC c #363636366565",
"BC c #383837377777",
"CC c #F1F1F0F0F8F8",
"DC c #747474748F8F",
"EC c #76767474B8B8",
"FC c #4A4A4A4A7272",
"GC c #6E6E6C6CB5B5",
"HC c #8A8A8888C2C2",
"IC c #82827F7FBEBE",
"JC c #6C6C6969B3B3",
"KC c #606060608787",
"LC c #64646161AFAF",
"MC c #CDCDCCCCE5E5",
"NC c #87878484C1C1",
"OC c #080808084141",
"PC c #9E9E9D9DCDCD",
"AD c #88888686C1C1",
"BD c #A2A2A0A0CFCF",
"CD c #5C5C5B5B8383",
"DD c #ECECECECF5F5",
"ED c #141414144B4B",
"FD c #5D5D5A5AACAC",
"GD c #B8B8B8B8B5B5",
"HD c #51514D4DA8A8",
"ID c #B5B5B4B4D9D9",
"JD c #434341418282",
"KD c #6F6F6E6E9393",
"LD c #98989696CACA",
"MD c #636363637474",
"ND c #A6A6A5A5D1D1",
"OD c #5C5C5A5AABAB",
"PD c #55555151ACAC",
"AE c #CACAC9C9E4E4",
"BE c #D6D6D5D5EBEB",
"CE c #58585454ABAB",
"DE c #55555252A1A1",
"EE c #ECECEBEBF5F5",
"FE c #9D9D9B9BCCCC",
"GE c #DADADADAECEC",
"HE c #63636060AEAE",
"IE c #6E6E6E6E8484",
"JE c #F7F7F7F7FBFB",
"KE c #99999898CBCB",
"LE c #5B5B5858ABAB",
"ME c #5E5E5A5AACAC",
"NE c #C0C0BFBFDFDF",
"OE c #6A6A6868B2B2",
"PE c #C6C6C5C5E2E2",
"AF c #5C5C5B5B9E9E",
"BF c #1C1C1C1C5151",
"CF c #61615D5DB1B1",
"DF c #84848282C0C0",
"EF c #AAAAA8A8D3D3",
"FF c #68686565B4B4",
"GF c #6D6D6B6BACAC",
"HF c #B4B4B2B2D8D8",
"IF c #7C7C7C7C9A9A",
"JF c #E4E4E4E4F2F2",
"KF c #9A9A9898CCCC",
"LF c #E0E0DFDFEFEF",
"MF c #A5A5A3A3D0D0",
"NF c #D3D3D2D2E8E8",
"OF c #5C5C5858ADAD",
"PF c #AFAFADADD6D6",
"AG c #EAEAE9E9F4F4",
"BG c #F4F4F4F4F9F9",
"CG c #60605C5CADAD",
"DG c #4D4D4B4B9999",
"EG c #E4E4E3E3F1F1",
"FG c #69696666B2B2",
"GG c #5B5B5656ACAC",
"HG c #72726E6EB7B7",
"IG c #DFDFDEDEEEEE",
"JG c #F0F0EEEEF7F7",
"KG c #E8E8E7E7F3F3",
"LG c #73737171B7B7",
"MG c #6A6A6A6A7B7B",
"NG c #60605E5EADAD",
"OG c #71716F6FB6B6",
"PG c #7B7B7878BBBB",
"AH c #70706E6EB5B5",
"BH c #EDEDEDEDF6F6",
"CH c #83838181BFBF",
"DH c #7B7B7979BBBB",
"EH c #68686565B0B0",
"FH c #4F4F4B4BA4A4",
"GH c #A1A19F9FCECE",
"HH c #B0B0AEAED6D6",
"IH c #C3C3C2C2E0E0",
"JH c #F1F1F1F1F8F8",
"KH c #6D6D6D6D8888",
"LH c #41413E3E8C8C",
"MH c #C2C2C1C1DFDF",
"NH c #E4E4E4E4F1F1",
"OH c #1B1B1B1B5C5C",
"PH c #DEDEDDDDEEEE",
"AI c #DCDCDCDCEDED",
"BI c #646464647F7F",
"CI c #5A5A5656A9A9",
"DI c #4E4E4C4C9393",
"EI c #5F5F5A5AAFAF",
"FI c #F6F6F6F6FBFB",
"GI c #B2B2B1B1D7D7",
"HI c #61615E5EAEAE",
"II c #2C2C2A2A7070",
"JI c #161616165353",
"KI c #B7B7B6B6DADA",
"LI c #67676565B1B1",
"MI c #F6F6F4F4FAFA",
"NI c #EDEDEEEEF6F6",
"OI c #E1E1E1E1F0F0",
"PI c #323232325A5A",
"AJ c #464643439090",
"BJ c #60605D5DADAD",
"CJ c #D1D1D1D1E8E8",
"DJ c #60605E5EAEAE",
"EJ c #5D5D5959AEAE",
"FJ c #F5F5F4F4F9F9",
"GJ c #F3F3F3F3F9F9",
"HJ c #707070708787",
"IJ c #DDDDDCDCEEEE",
"JJ c #D9D9D8D8EBEB",
"KJ c #D8D8D7D7EBEB",
"LJ c #6A6A6767B2B2",
"MJ c #83838181C2C2",
"NJ c #58585656A9A9",
"OJ c #58585353AAAA",
"PJ c #55555050AAAA",
"AK c #71716D6DB6B6",
"BK c #63636060B0B0",
"CK c #5A5A5656AAAA",
"DK c #5B5B5757AAAA",
"EK c #5F5F5C5CACAC",
"FK c #5A5A5757AAAA",
"GK c #58585454A9A9",
"HK c #59595555A9A9",
"IK c #5E5E5C5CACAC",
"JK c #57575353AAAA",
"KK c #56565252ABAB",
"LK c #57575252ABAB",
"MK c #56565151ACAC",
"NK c #EEEEEEEEF6F6",
"OK c #59595656AAAA",
"PK c #EAEAEAEAF4F4",
"AL c #EEEEEEEEF7F7",
"BL c #5B5B5757ABAB",
"CL c #EBEBEBEBF5F5",
"DL c #58585555A9A9",
"EL c #E7E7E7E7F3F3",
"FL c #EFEFEEEEF7F7",
"GL c #5F5F5C5CADAD",
"HL c #EAEAEAEAF5F5",
"IL c #E6E6E6E6F3F3",
"JL c #F0F0F0F0F7F7",
"KL c #57575252AAAA",
"LL c #5F5F5D5DADAD",
"ML c #E6E6E5E5F2F2",
"NL c #F0F0EFEFF7F7",
"OL c #E6E6E6E6F2F2",
"PL c #E7E7E6E6F3F3",
"AM c #EFEFEFEFF6F6",
"BM c #57575353A9A9",
"CM c #57575454A9A9",
"DM c #55555252A8A8",
"EM c #EFEFEEEEF6F6",
"FM c #5F5F5B5BAFAF",
"GM c #EBEBEAEAF5F5",
"HM c #EBEBEBEBF3F3",
"IM c #E7E7E6E6F2F2",
"JM c #58585555A8A8",
"KM c #79797676BABA",
"LM c #9E9E9D9DC4C4",
"MM c #0E0E0E0E4B4B",
"NM c #989898989C9C",
"OM c #9B9B9999CCCC",
"PM c #EFEFF0F0F8F8",
"AN c #8D8D8C8CBABA",
"BN c #575757576F6F",
"CN c #F2F2F1F1FBFB",
"DN c #636363638686",
"EN c #535353537A7A",
"FN c #767676767C7C",
"GN c #82828181AAAA",
"HN c #AAAAA9A9CACA",
"IN c #66666363B3B3",
"JN c #D4D4D3D3E9E9",
"KN c #7C7C7C7C8D8D",
"LN c #909090909393",
"MN c #53534F4FA8A8",
"NN c #E3E3E3E3F1F1",
"ON c #CFCFCECEE6E6",
"PN c #ECECEBEBF8F8",
"AO c #F5F5F6F6FBFB",
"BO c #E7E7E7E7F4F4",
"CO c #8B8B8989C3C3",
"DO c #CCCCCBCBE4E4",
"EO c #AAAAA9A9D3D3",
"FO c #ACACAAAAD4D4",
"GO c #5C5C5757ACAC",
"HO c #EEEEEFEFF6F6",
"IO c #C8C8C6C6E2E2",
"JO c #5A5A5656ABAB",
"KO c #EBEBEAEAF4F4",
"LO c #DEDEDEDEE7E7",
"MO c #B3B3B2B2DADA",
"NO c #C4C4C3C3E1E1",
"OO c #73737272AFAF",
"PO c #3F3F3D3D8A8A",
"AP c #A2A2A1A1CFCF",
"BP c #20201F1F6161",
"CP c #DEDEDCDCEDED",
"DP c #E6E6E7E7F3F3",
"EP c #2E2E2E2E6161",
"FP c #E7E7E7E7F2F2",
"GP c #6F6F6D6DB5B5",
"HP c #5B5B5858A7A7",
"IP c #89898888C6C6",
"JP c #68686565B1B1",
"KP c #58585454B1B1",
"LP c #56565252AAAA",
"MP c #F8F8F8F8FDFD",
"NP c #5C5C5959ABAB",
"OP c #5E5E5B5BACAC",
"PP s bg c None",
/* pixels */
"PPPPPPPPPPPPPPPPPPPPPPPPPPPPPPPPPPPPMKMKMKMKMKPDPDPDPDPDPDPPPPPPPPPPPPPPPPPPPPPPPPPPPPPPPPPPPPPP",
"PPPPPPPPPPPPPPPPPPPPPPPPPPPPPPMKMKMKMKKKKKKKKKKKKKMKMKPDMKMKPDPDPPPPPPPPPPPPPPPPPPPPPPPPPPPPPPPP",
"PPPPPPPPPPPPPPPPPPPPPPPPPPKKKKKKKKLPJKCEGGEJEIFMFMEIEJBLCELKPDMKMKPDPPPPPPPPPPPPPPPPPPPPPPPPPPPP",
"PPPPPPPPPPPPPPPPPPPPPPLKLKLKKLKLJKHKNPHIEAJPJCFAGCGCFALJINBKEJCEMKMKMKMKPPPPPPPPPPPPPPPPPPPPPPPP",
"PPPPPPPPPPPPPPPPPPLKLKKLJKJKBMHKNPHEJPFAHGJAECKMNBNBKMGAJAHGJCLCGOPJMNPJMKPPPPPPPPPPPPPPPPPPPPPP",
"PPPPPPPPPPPPPPPPKLJKJKCMGKHKDBBJJPFAIBECPGPACACADFLALALALALALBBALACAEAHDHDKKMKPPPPPPPPPPPPPPPPPP",
"PPPPPPPPPPPPPPJKJKBMGKHKCIFDHELJAHECPGIAICDFNCNCBAPFIHBEILALBGGJCCFLKBHFJCFHKKMKPPPPPPPPPPPPPPPP",
"PPPPPPPPPPPPJKOJGKGKHKDKOPEAJCHGJAKMPAICNCHCLALBLBLABAGBOMFONEPHFJFJGJMPEGPAHDKKMKPPPPPPPPPPPPPP",
"PPPPPPPPPPOJCEGKDLOKDKOPLCFAAKPGJBMFNDMFFEJBGBBABABABABALBHCNCHCEFAGOAJLFIIJBKMNLKKKPPPPPPPPPPPP",
"PPPPPPPPCEGKGKDLCIBLOPHEJCAKNCONAGDDBHEEGMJFKJMCMHKIHHNDPCLDJBBAGBAIOAAMAMJELDHDKLLKPPPPPPPPPPPP",
"PPPPPPPPGKGKHKCIDKFDHIFGHGOGHFJHAGPKEEDDALNLOAFJMIOANLALDDKGKBNHCLJLNLNKBHMPHHMNJKJKLKPPPPPPPPPP",
"PPPPPPGKDLHKHKCKDBCGEAGCJAECGINKDAKAHLEEOBNIAMJLOAOAJHJHOAGJJHJHCCAMFLBHBHJEBDDMGKJKJKLKPPPPPPPP",
"PPPPPPDLHKHKOKBLMEHIFGOGKMPAJBMLHLKAGMCLOBJLDDKAILOLAGEEOBPMGJFJGJCCFLAMAOPHIBOKGKGKJKJKPPPPPPPP",
"PPPPDLHKHKOKCKLEOPHEJCJADHICDFNEALKAKOCLBHMCHHNDMFAPAPMFEFHHKIIHCJFBDANHPECANPNPHKGKCEJKOJPPPPPP",
"PPPPHKHKCKCKCKDBEKEAGCECIACHNCGBJJNKPKDDDAAPKFPCPCPCFEKEJBBAHCNCNCNCDFPAOEBJGLLECIGKGKJOKPPPPPPP",
"PPHKHKCKCKFKFKNPLLMBGPECIACHHCCOPCIGNKPKBHIOOMPCPCFEOMLDJBBALAADICPGLGFAMBHIMENPOKHKEJFHIIIELNPP",
"PPHKCKCKFKFKDKNPCGMBGCECIACHADLBLBGHIJALCLBHIOOMKEKFLDJBBALAHCCHIAGAAHFGLCBJOPNPJOEIAJOCBNGDKHPP",
"PPOKCKFKDKDKLENPBJEAFAJADHICNCCOBALBPCKJHOEENKCJGHGBGBBALAHCDFIAGAOGOEMBHENGOPNPFMPOHAFCGDKHPPPP",
"OKCKFKDKLELEDBNPGLLCLJOGNBIADFADLABALBLDAEOBCLBHFBEOHCHCADCHIAGAOGJCJPEAHEBJOPCFPOHABBNAKHMMPPPP",
"CKCKFKDKLEDBNPNPIKHEMBGCJANBIAICDFNCHCHCCOHFNNCLCLKGKICHIAIAECOGFALJJPEAHEDJBKLHOCACNAIEHALHEJPP",
"CKFKDKLELENPNPNPOPHIHEHELJECICBAOMGHAPGHKELAFEAENNELKANOICGPOGGCJCLJMBEAHEINAJMMACNMHJHAIIEJGKPP",
"CKFKDKLENPNPFDFDLEOKOEBAHFMCIGNHOLILILMLEGLFONNEAEPHKBDACJHCFGFAJCLJMBEAFFDGEDACLNIEHAOHOFJOGKPP",
"FKDKBLDBNPNPFDCMEAAPGEBHJLBHHLDADAKGELELDPOLELELLFPHLFLFMLPHFEFGFGFGMBFFDEJIACMAMGHAMMDEOFHKDLPP",
"FKDKLENPNPFDGKLGJNFIJLDDPKDADABOPLIMIMPLELAGAGDADADADAPLMLDAPKIDOGMBFGHPBPACKNMGHAOCDGEJOKHKGKPP",
"DKBLDBNPNPFKMBBEFIALNIBHEEPKPKPKKACLJGDACPAENEEBKIHFPFEOMFGHFEFEPAMBEHABACDCMDOCHALHCFFKOKHKHKPP",
"DKLEDBNPNPDMKEJHHLDDNIALBHBHDDBHOAFBKIGBDHJAIBOGGPGCFAOELJEHMBEALIFFAABIHJMDOCHABCCFFKFKCKHKHKPP",
"DKLENPNPNPDMEOFLMLKGAGOBALFLJLNKHFPGFGJCAHIBIBLGLGLGIBIBAHGCJCOEGCAJACDCFNPIHAABFMNPDKFKCKHKHKPP",
"LELEDBNPFDDMJBKANNNHILKAEEFLJHAPLCLJGPOGLGJAECECECECJALGIBAHFAGCDGACDCMDBFPIBCJMOPLELEDKCKCKHKPP",
"BLDBNPNPFDLEMBONMLOINNMLDANKKJFGLJGCOGJAECGANBPGPGNBNBGAJAIBJAHPEPKDBIBFHABPLCOPNPDBBLDKFKCKPPPP",
"PPDBNPNPFDOPDLICPHKBLFOINNKALFGALIOGJAGAPGDHPAIAIAIAPADHNBPGFAABDNKDHBHAJIHPFMODNPDBLEDKCKCKPPPP",
"PPDBNPFDFDOPOPJMADGEEGLFFBEGCLDOIAJCJANBPAIACACACACACAIACADHIIENIFACHAMMDEBKFDODNPDBLEDKCKCKPPPP",
"PPDBNPFDFDMEOPIKNJPAPEEGOIOINHDDPHEODFGANBIAICCHCHCHICICMJBCBBIFBBHAOCPBFFEKFDODNPDBLEDKCKPPPPPP",
"PPPPNPFDFDMEOPEKGLFKLCPCJJMLKBNHKAAMNNNOBDADCAIAICDFDFIPAAEPIFFCOCOCPBJAFGHEOPNPNPDBLEDKCKPPPPPP",
"PPPPNPNPFDOPOPEKLLBJOPFKGAKIFBKGJFOLHLJHNLNNAEGIKEHCLBAFHBKDCDMMHADIPGHGFAMBBJFDNPDBLEDKCKPPPPPP",
"PPPPPPNPFDOPOPOPGLBJNGNGBJLILAIHNNCLPKPKEEEMGJBGNKPNHNBFKCKCEDHAJDCAGALGGPJPBJNPNPDBBLDKPPPPPPPP",
"PPPPPPNPFDFDOPIKEKLLBJHIMBGPLGPAKEEBGEKGNKJHJHCCFIHMBBBBKCBFHACDKFDHLGJAAHLIEKNPNPDBBLPPPPPPPPPP",
"PPPPPPPPNPFDOPIKEKGLLLHEJCJAPACHNCADGBMFKIPENFLFCNDNABCDBFHACDJEJHONPCLGFALCFDNPNPLEDKPPPPPPPPPP",
"PPPPPPPPNPFDOPOPEKEKLLLCFAECIADFHCLBBABABABAGBFEGNBIFCBFHAFCEMJEOAFIBGEBLIOPNPNPNPLEPPPPPPPPPPPP",
"PPPPPPPPPPFDFDOPIKEKLLLCAHCACOBAJBLDPCBDMFNDMOANBFKHMGOCACKBJECCOAFJCBJJLCLEODNPDBPPPPPPPPPPPPPP",
"PPPPPPPPPPPPFDMEOPIKEKDJOGLABDIDPEJNGEIGKBKAFPFCEPBFBFMALOMPAMBHAGKJHHOGFKFDNPDBPPPPPPPPPPPPPPPP",
"PPPPPPPPPPPPPPFDOPOPIKEKNGEAFANBDFLALDAPFOEBKDHBHBHAJILMNEHHNDLDICFALEOKFDFDNPPPPPPPPPPPPPPPPPPP",
"PPPPPPPPPPPPPPPPOPOPOPIKEKNGEAJCLGNBIAICNCGFBFBFHAJIOOCHGAJAAHOELCOPODFDFDNPPPPPPPPPPPPPPPPPPPPP",
"PPPPPPPPPPPPPPPPPPOPOPOPIKEKEKNGLCFGGCLGKMBCEDHAEDGFPALGAHJCEABJOPFDFDFDNPPPPPPPPPPPPPPPPPPPPPPP",
"PPPPPPPPPPPPPPPPPPPPPPOPOPIKIKEKEKEKBJINDIEDHAJIOPGCEAHEHIIKFDFDFDFDFDNPPPPPPPPPPPPPPPPPPPPPPPPP",
"PPPPPPPPPPPPPPPPPPPPPPPPOPOPIKIKIKEKBJFDOHHAOHHPBKOPOPOPOPOPOPOPFDFDPPPPPPPPPPPPPPPPPPPPPPPPPPPP",
"PPPPPPPPPPPPPPPPPPPPPPPPPPPPOPOPOPIKINBCHABPOPHEOPOPOPOPOPOPFDFDPPPPPPPPPPPPPPPPPPPPPPPPPPPPPPPP",
"PPPPPPPPPPPPPPPPPPPPPPPPPPPPPPPPPPPPDGOCABBJBJOPOPOPOPOPFDPPPPPPPPPPPPPPPPPPPPPPPPPPPPPPPPPPPPPP",
"PPPPPPPPPPPPPPPPPPPPPPPPPPPPPPPPPPPPPPPPPPPPPPPPPPPPPPPPPPPPPPPPPPPPPPPPPPPPPPPPPPPPPPPPPPPPPPPP"};
