/* XPM */
static char * emacs_24_xpm[] = {
"24 24 314 2",
"  	c None",
". 	c #5854AC",
"+ 	c #5C58AE",
"@ 	c #5E59AF",
"# 	c #5E5AAF",
"$ 	c #5D59AF",
"% 	c #5A55AD",
"& 	c #5A56AC",
"* 	c #635FB0",
"= 	c #6E6BB5",
"- 	c #7F7BBE",
"; 	c #8683C2",
"> 	c #8A87C4",
", 	c #8783C2",
"' 	c #7B78BD",
") 	c #6C68B6",
"! 	c #5B57AE",
"~ 	c #5753AA",
"{ 	c #5A56AB",
"] 	c #6B67B4",
"^ 	c #7E7BBD",
"/ 	c #908EC6",
"( 	c #9F9DCE",
"_ 	c #A6A4D1",
": 	c #ABA9D3",
"< 	c #ACAAD4",
"[ 	c #A7A6D2",
"} 	c #9B99CC",
"| 	c #7875BB",
"1 	c #605CB0",
"2 	c #5652AB",
"3 	c #5854AA",
"4 	c #5E59AC",
"5 	c #6C69B3",
"6 	c #8482C0",
"7 	c #9693C8",
"8 	c #A2A0CF",
"9 	c #B2B1D7",
"0 	c #B7B5D9",
"a 	c #B6B5D9",
"b 	c #B7B5DA",
"c 	c #B5B4D9",
"d 	c #B1AFD6",
"e 	c #A3A1D0",
"f 	c #8986C2",
"g 	c #6763B2",
"h 	c #5752AB",
"i 	c #5854A9",
"j 	c #5B57AA",
"k 	c #6662B0",
"l 	c #7673B8",
"m 	c #8E8BC5",
"n 	c #9D9BCC",
"o 	c #B2B0D7",
"p 	c #DFDEEC",
"q 	c #E0DFED",
"r 	c #D1D0E5",
"s 	c #BCBBDC",
"t 	c #B7B6DA",
"u 	c #9794C9",
"v 	c #7F7CBD",
"w 	c #5C58AC",
"x 	c #5753AB",
"y 	c #5955A9",
"z 	c #5E5BAC",
"A 	c #6B68B3",
"B 	c #7C79BC",
"C 	c #9795C9",
"D 	c #A6A5D1",
"E 	c #CAC8E2",
"F 	c #F9F9FB",
"G 	c #FAFAFC",
"H 	c #F4F4F8",
"I 	c #D9D9E9",
"J 	c #BEBCDC",
"K 	c #B0AFD6",
"L 	c #A4A1CF",
"M 	c #9593C8",
"N 	c #9290C6",
"O 	c #6663AF",
"P 	c #5A56AA",
"Q 	c #615EAE",
"R 	c #6D6AB4",
"S 	c #8886C2",
"T 	c #EAEAF1",
"U 	c #F3F3F6",
"V 	c #E8E8F0",
"W 	c #F9F8FB",
"X 	c #ECEBF4",
"Y 	c #E6E6F1",
"Z 	c #F5F5F9",
"` 	c #EBEBF3",
" .	c #C8C7E1",
"..	c #9E9CCC",
"+.	c #8A88C3",
"@.	c #8886C1",
"#.	c #8E8BC1",
"$.	c #5B56AA",
"%.	c #5753A9",
"&.	c #5956AA",
"*.	c #5A57AA",
"=.	c #605DAE",
"-.	c #A3A1CE",
";.	c #FAFAFA",
">.	c #FCFCFC",
",.	c #F6F6F8",
"'.	c #F6F6F9",
").	c #D2D1E6",
"!.	c #B8B7D9",
"~.	c #D0CEE5",
"{.	c #E9E8F2",
"].	c #F0F0F6",
"^.	c #C4C3DF",
"/.	c #9896C8",
"(.	c #9B99CA",
"_.	c #AEACD1",
":.	c #5F5CA8",
"<.	c #44408C",
"[.	c #64647D",
"}.	c #646472",
"|.	c #605DAD",
"1.	c #6B69B3",
"2.	c #AFADD4",
"3.	c #FBFBFC",
"4.	c #E8E7F1",
"5.	c #CECCE2",
"6.	c #F5F5F8",
"7.	c #D1D0E6",
"8.	c #A9A8D3",
"9.	c #A7A5D1",
"0.	c #B6B5D8",
"a.	c #E1E0EE",
"b.	c #DAD9EA",
"c.	c #D6D5E7",
"d.	c #C6C5DE",
"e.	c #5A5894",
"f.	c #484773",
"g.	c #5E5E77",
"h.	c #5B58AB",
"i.	c #6663B0",
"j.	c #A5A3CF",
"k.	c #C8C8E1",
"l.	c #9593C7",
"m.	c #ADACD3",
"n.	c #BBBAD8",
"o.	c #9E9DCB",
"p.	c #9392C8",
"q.	c #8684BF",
"r.	c #C2C2DD",
"s.	c #E3E2EF",
"t.	c #E7E6F1",
"u.	c #9090AD",
"v.	c #575779",
"w.	c #515172",
"x.	c #11113E",
"y.	c #5C59AB",
"z.	c #6361AF",
"A.	c #918FC5",
"B.	c #FAFAFB",
"C.	c #C3C1DF",
"D.	c #8786C0",
"E.	c #8D8BC3",
"F.	c #918FC4",
"G.	c #8B8AC2",
"H.	c #8584C0",
"I.	c #807EBE",
"J.	c #7A78BA",
"K.	c #7D7BBA",
"L.	c #9A98C7",
"M.	c #9F9EBD",
"N.	c #57567A",
"O.	c #434368",
"P.	c #252455",
"Q.	c #393670",
"R.	c #5C58AA",
"S.	c #5F5CAC",
"T.	c #625FAE",
"U.	c #8785C0",
"V.	c #F8F8F9",
"W.	c #C0BFDE",
"X.	c #7E7CBC",
"Y.	c #807EBD",
"Z.	c #8180BE",
"`.	c #817FBE",
" +	c #7E7CBD",
".+	c #7B79BB",
"++	c #7674B9",
"@+	c #6E6BB3",
"#+	c #6260A3",
"$+	c #595984",
"%+	c #474769",
"&+	c #1F1E51",
"*+	c #35326E",
"=+	c #514E9B",
"-+	c #8584BE",
";+	c #7572B6",
">+	c #9D9CCA",
",+	c #BAB9DA",
"'+	c #7776B8",
")+	c #7C7BBC",
"!+	c #7F7EBD",
"~+	c #7A78BB",
"{+	c #7371B7",
"]+	c #605EA3",
"^+	c #515083",
"/+	c #4C4C6E",
"(+	c #292957",
"_+	c #393773",
":+	c #53509C",
"<+	c #5D5AAB",
"[+	c #8482BD",
"}+	c #B6B5D6",
"|+	c #DADAE9",
"1+	c #F7F7FA",
"2+	c #B2B1D6",
"3+	c #7877B9",
"4+	c #807FBE",
"5+	c #8684C0",
"6+	c #8382BF",
"7+	c #7271B2",
"8+	c #515087",
"9+	c #424270",
"0+	c #1D1D50",
"a+	c #3A3871",
"b+	c #514E97",
"c+	c #5955A8",
"d+	c #5D5AAC",
"e+	c #6462AF",
"f+	c #A8A7D0",
"g+	c #EFEFF5",
"h+	c #F0F0F7",
"i+	c #A4A4CE",
"j+	c #7C7ABA",
"k+	c #8483BF",
"l+	c #8887C2",
"m+	c #8988C3",
"n+	c #807FBB",
"o+	c #585791",
"p+	c #50507A",
"q+	c #242456",
"r+	c #28275C",
"s+	c #524F97",
"t+	c #5A57A8",
"u+	c #6B68B1",
"v+	c #AAA9D1",
"w+	c #C3C3DE",
"x+	c #8A88C1",
"y+	c #8583C0",
"z+	c #8D8CC4",
"A+	c #908FC6",
"B+	c #8988C0",
"C+	c #626197",
"D+	c #4E4E7A",
"E+	c #212154",
"F+	c #333266",
"G+	c #595696",
"H+	c #5D5AAA",
"I+	c #5F5DAC",
"J+	c #6C6AB2",
"K+	c #8583BE",
"L+	c #8886C0",
"M+	c #9998CA",
"N+	c #9B9ACB",
"O+	c #7776A9",
"P+	c #454576",
"Q+	c #29295C",
"R+	c #333262",
"S+	c #5C5B93",
"T+	c #6563AB",
"U+	c #6664B0",
"V+	c #8C8BC4",
"W+	c #9E9DCD",
"X+	c #A09ECE",
"Y+	c #56567F",
"Z+	c #3C3C66",
"`+	c #262655",
" @	c #656396",
".@	c #6F6CAF",
"+@	c #5C59AA",
"@@	c #716FB6",
"#@	c #908FC1",
"$@	c #535286",
"%@	c #1B1B50",
"&@	c #373763",
"*@	c #646291",
"=@	c #706EB3",
"-@	c #6360AE",
";@	c #5B58A9",
">@	c #5856A1",
",@	c #625FAD",
"'@	c #6A68B2",
")@	c #7471B7",
"!@	c #7D7BBB",
"~@	c #63619C",
"{@	c #24245B",
"]@	c #242458",
"^@	c #4F4D85",
"/@	c #6462A8",
"(@	c #605DAC",
"_@	c #5754A0",
":@	c #474585",
"<@	c #4E4C8F",
"[@	c #5B58A5",
"}@	c #5C5AA6",
"|@	c #2F2E6D",
"1@	c #1B1B51",
"2@	c #474582",
"3@	c #5957A2",
"4@	c #5B58A7",
"5@	c #484686",
"6@	c #28265C",
"7@	c #14133E",
"8@	c #2D2C56",
"9@	c #3E3D73",
"                . + @ # $ %                     ",
"            & * = - ; > , ' ) !                 ",
"        ~ { ] ^ / ( _ : < [ } | 1 2             ",
"      3 4 5 6 7 8 9 0 a b c d e f g h           ",
"    i j k l m n o p q r s t o _ u v w x         ",
"    y z A B C D E F G H I J K L M N O 3         ",
"  y P Q R S T U V W X Y Z `  ...+.@.#.$.%.      ",
"  &.*.=.R -.;.>.,.'.).!.~.{.].^./.(._.:.<.[.}.  ",
"  P j |.1.2.3.4.5.6.7.8.9.0.a.].b.c.d.e.f.g.    ",
"P j h.z i.j.3.k.l.m.n.o.p.+.q.r.s.t.u.v.w.x.    ",
"*.j y.z z.A.B.C.D.E.F.G.H.I.J.K.L.M.N.O.P.Q.    ",
"*.R.S.z T.U.V.W.X.Y.Z.`. +.+++@+#+$+%+&+*+=+    ",
"h.y.i.-+;+>+F ,+'+)+!+`. +~+{+]+^+/+(+_+:+y     ",
"  y.<+[+}+|+1+2+3+4+6 5+6+!+7+8+9+0+a+b+c+      ",
"  y.d+e+f+g+h+i+j+k+l+m+l+n+o+p+q+r+s+t+P       ",
"  y.d+z u+v+w+x+y+z+/ A+B+C+D+E+F+G+H+h.*.      ",
"    <+z I+J+K+L+N M+N+M+O+P+Q+R+S+T+y.j         ",
"      z S.U+X.V+C W+X+L.Y+Z+`+ @.@T.y.          ",
"        +@|.@@4+z+C #@$@%@&@*@=@-@;@            ",
"          >@,@'@)@!@~@{@]@^@/@(@_@:@            ",
"            <@[@|.}@|@1@2@3@4@5@                ",
"                  6@7@8@9@                      ",
"                                                ",
"                                                "};
