/* XPM */
static char *emacs_24[] = {
/* width height ncolors chars_per_pixel */
"24 24 256 2",
/* colors */
"AA c #6A6A6868B2B2",
"BA c #57575454A9A9",
"CA c #C1C1C0C0DFDF",
"DA c #BFBFBEBEDEDE",
"EA c #7C7C7A7ABCBC",
"FA c #7B7B7878BBBB",
"GA c #B6B6B5B5D9D9",
"HA c #B2B2B0B0D7D7",
"IA c #ADADABABD5D5",
"JA c #70706E6EB5B5",
"KA c #9B9B9999CCCC",
"LA c #61615E5EAEAE",
"MA c #62625E5EB0B0",
"NA c #60605E5EADAD",
"OA c #5E5E5A5AAEAE",
"PA c #8C8C8B8BC3C3",
"AB c #5D5D5959ACAC",
"BB c #73737171B7B7",
"CB c #6E6E6B6BB4B4",
"DB c #6D6D6A6AB3B3",
"EB c #6B6B6767B2B2",
"FB c #69696666B2B2",
"GB c #4D4D4848A7A7",
"HB c #58585454A9A9",
"IB c #5A5A5757AAAA",
"JB c #5B5B5757AAAA",
"KB c #5B5B5858ABAB",
"LB c #5A5A5656AAAA",
"MB c #5E5E5B5BACAC",
"NB c #59595555AAAA",
"OB c #59595656AAAA",
"PB c #59595555A9A9",
"AC c #77777575B9B9",
"BC c #83838181BFBF",
"CC c #57575353A9A9",
"DC c #F3F3F3F3F9F9",
"EC c #5D5D5A5AABAB",
"FC c #5D5D5A5AACAC",
"GC c #78787676B9B9",
"HC c #EBEBEAEAF4F4",
"IC c #70706D6DB5B5",
"JC c #C9C9C8C8E3E3",
"KC c #60605D5DADAD",
"LC c #5B5B5858AAAA",
"MC c #E0E0E0E0EFEF",
"NC c #B9B9B8B8DBDB",
"OC c #58585555A9A9",
"PC c #55555151ABAB",
"AD c #D1D1D0D0E7E7",
"BD c #68686565B1B1",
"CD c #B0B0AFAFD6D6",
"DD c #DADADADAECEC",
"ED c #7F7F7E7EBDBD",
"FD c #69696666B1B1",
"GD c #F9F9F9F9FCFC",
"HD c #5C5C5858ABAB",
"ID c #E7E7E7E7F3F3",
"JD c #56565353A8A8",
"KD c #7E7E7D7DBCBC",
"LD c #78787676BABA",
"MD c #DFDFDFDFEFEF",
"ND c #A6A6A5A5D1D1",
"OD c #6F6F6C6CB5B5",
"PD c #63636161AEAE",
"AE c #5D5D5B5BACAC",
"BE c #69696767B1B1",
"CE c #ADADACACD5D5",
"DE c #95959393C8C8",
"EE c #EBEBEBEBF5F5",
"FE c #83838080BFBF",
"GE c #57575353A8A8",
"HE c #CDCDCCCCE5E5",
"IE c #79797676BABA",
"JE c #E5E5E4E4F2F2",
"KE c #5F5F5C5CACAC",
"LE c #5F5F5C5CADAD",
"ME c #E6E6E5E5F2F2",
"NE c #EEEEEDEDF6F6",
"OE c #79797777BABA",
"PE c #55555050AAAA",
"AF c #85858383C0C0",
"BF c #E5E5E5E5F2F2",
"CF c #89898787C2C2",
"DF c #71716F6FB6B6",
"EF c #F0F0EFEFF7F7",
"FF c #56565252AAAA",
"GF c #57575252AAAA",
"HF c #B2B2B1B1D8D8",
"IF c #75757373B7B7",
"JF c #9B9B9999CBCB",
"KF c #C7C7C6C6E2E2",
"LF c #58585353A9A9",
"MF c #D4D4D3D3E9E9",
"NF c #C2C2C1C1E0E0",
"OF c #F7F7F7F7FBFB",
"PF c #5E5E5C5CACAC",
"AG c #EAEAE9E9F4F4",
"BG c #C2C2C1C1DFDF",
"CG c #63636060AFAF",
"DG c #59595555ABAB",
"EG c #96969494C9C9",
"FG c #93939191C7C7",
"GG c #CCCCCBCBE5E5",
"HG c #64646161AFAF",
"IG c #E8E8E8E8F4F4",
"JG c #D0D0D0D0E8E8",
"KG c #87878585C1C1",
"LG c #F6F6F5F5FAFA",
"MG c #97979595C9C9",
"NG c #DCDCDBDBEDED",
"OG c #8B8B8888C3C3",
"PG c #8F8F8C8CC5C5",
"AH c #54545151A7A7",
"BH c #FCFCFCFCFEFE",
"CH c #F2F2F2F2F9F9",
"DH c #5B5B5959AAAA",
"EH c #7B7B7A7ABBBB",
"FH c #E3E3E2E2F1F1",
"GH c #64646161AEAE",
"HH c #5B5B5757ABAB",
"IH c #BCBCBBBBDCDC",
"JH c #A7A7A5A5D1D1",
"KH c #EEEEEEEEF7F7",
"LH c #76767373B8B8",
"MH c #F5F5F5F5FAFA",
"NH c #84848383C0C0",
"OH c #E4E4E3E3F1F1",
"PH c #AFAFAEAED5D5",
"AI c #AEAEACACD5D5",
"BI c #A6A6A4A4D1D1",
"CI c #56565151ABAB",
"DI c #C4C4C3C3E0E0",
"EI c #88888787C2C2",
"FI c #B1B1B1B1D7D7",
"GI c #5C5C5A5AABAB",
"HI c #9F9F9D9DCECE",
"II c #64646060AFAF",
"JI c #6C6C6969B3B3",
"KI c #9D9D9B9BCCCC",
"LI c #AEAEACACD6D6",
"MI c #59595757AAAA",
"NI c #D5D5D5D5E9E9",
"OI c #AFAFAEAED6D6",
"PI c #58585555A8A8",
"AJ c #59595454A9A9",
"BJ c #7D7D7C7CBCBC",
"CJ c #EBEBEAEAF5F5",
"DJ c #EAEAEAEAF4F4",
"EJ c #E5E5E4E4F1F1",
"FJ c #BBBBBABADCDC",
"GJ c #D9D9D8D8ECEC",
"HJ c #DADAD9D9ECEC",
"IJ c #85858282C0C0",
"JJ c #D7D7D7D7EBEB",
"KJ c #8C8C8A8AC4C4",
"LJ c #8A8A8787C3C3",
"MJ c #81818080BEBE",
"NJ c #B3B3B2B2D8D8",
"OJ c #5A5A5757A9A9",
"PJ c #ECECEBEBF5F5",
"AK c #84848181C0C0",
"BK c #DEDEDDDDEEEE",
"CK c #A4A4A1A1D0D0",
"DK c #7D7D7B7BBCBC",
"EK c #E6E6E6E6F2F2",
"FK c #E7E7E6E6F3F3",
"GK c #E0E0DFDFEFEF",
"HK c #88888686C1C1",
"IK c #E7E7E7E7F2F2",
"JK c #CECECECEE6E6",
"KK c #F3F3F2F2F9F9",
"LK c #F2F2F1F1F9F9",
"MK c #98989696CACA",
"NK c #62625E5EAEAE",
"OK c #5B5B5959ABAB",
"PK c #E4E4E4E4F2F2",
"AL c #66666262B3B3",
"BL c #77777676B9B9",
"CL c #97979494CBCB",
"DL c #56565252A8A8",
"EL c #F8F8F8F8FBFB",
"FL c #EDEDECECF6F6",
"GL c #EDEDECECF7F7",
"HL c #EDEDEDEDF6F6",
"IL c #EDEDEDEDF7F7",
"JL c #5F5F5D5DACAC",
"KL c #55555050ABAB",
"LL c #F8F8F8F8FCFC",
"ML c #F9F9F8F8FCFC",
"NL c #82828181BEBE",
"OL c #78787575BABA",
"PL c #84848282BFBF",
"AM c #A7A7A5A5D2D2",
"BM c #EEEEEEEEF6F6",
"CM c #EFEFEFEFF7F7",
"DM c #75757373B8B8",
"EM c #76767373BBBB",
"FM c #7E7E7C7CBCBC",
"GM c #ABABAAAAD4D4",
"HM c #7F7F7D7DBCBC",
"IM c #59595656A9A9",
"JM c #80807F7FBEBE",
"KM c #54545050ABAB",
"LM c #86868383C0C0",
"MM c #76767474B8B8",
"NM c #5F5F5D5DADAD",
"OM c #84848282C0C0",
"PM c #5A5A5555AAAA",
"AN c #CECECDCDE6E6",
"BN c #F0F0F0F0F8F8",
"CN c #F1F1F0F0F8F8",
"DN c #F1F1F1F1F8F8",
"EN c #D2D2D1D1E8E8",
"FN c #7F7F7C7CBDBD",
"GN c #DFDFDEDEEEEE",
"HN c #DBDBDADAEDED",
"IN c #BDBDBBBBDEDE",
"JN c #7A7A7777BABA",
"KN c #91918F8FC6C6",
"LN c #64646262AFAF",
"MN c #C4C4C2C2E1E1",
"NN c #C4C4C3C3E1E1",
"ON c #6E6E6C6CB4B4",
"PN c #6F6F6D6DB4B4",
"AO c #88888686C2C2",
"BO c #5F5F5B5BACAC",
"CO c #63636161AFAF",
"DO c #8E8E8C8CC5C5",
"EO c #52524D4DA8A8",
"FO c #8F8F8D8DC4C4",
"GO c #80807E7EBDBD",
"HO c #74747272B7B7",
"IO c #B8B8B6B6DADA",
"JO c #F0F0EFEFF8F8",
"KO c #5D5D5B5BABAB",
"LO c #E9E9E9E9F4F4",
"MO c #56565252ABAB",
"NO c #92929090C7C7",
"OO c #CCCCCBCBE4E4",
"PO c #80807E7EBEBE",
"AP c #D8D8D7D7ECEC",
"BP c #81817E7EBEBE",
"CP c #EDEDECECF5F5",
"DP c #B3B3B1B1D8D8",
"EP c #FAFAFAFAFCFC",
"FP c #FAFAFAFAFDFD",
"GP c #F5F5F5F5FBFB",
"HP c #A8A8A7A7D3D3",
"IP c #9C9C9A9ACCCC",
"JP c #66666464B0B0",
"KP c #67676464B0B0",
"LP c #67676464B1B1",
"MP c #9A9A9999CBCB",
"NP c #E3E3E2E2F0F0",
"OP c #5C5C5959ABAB",
"PP s bg c None",
/* pixels */
"PPPPPPPPPPPPPPPPPPCIPCPCPCKLKMPPPPPPPPPPPPPPPPPP",
"PPPPPPPPPPPPMOFFFFDGLECGMAOADGEOGBGBPPPPPPPPPPPP",
"PPPPPPPPPPGFCCHBBOEBBBIEPGCKIADPLICLALPPPPPPPPPP",
"PPPPPPPPCCHBPBBDIEBPAKIJOGDEJHDAEJEPMDEMPPPPPPPP",
"PPPPPPLFAJHBAFADBKDDADKFINHFAMKAGAEFFPMNPEPPPPPP",
"PPPPHBPBJBABIAKKHCBMMHGDMLOFLGDCCHDNELGGPMPEPPPP",
"PPHBPBOBMBBDDOOHCJEEMFBGCADIJCADNGIDHJAODLLFGFPP",
"PPNBLBJBKCODJNOIHLCPCDDEJFMKFGFOLJFEICABLBHBCCPP",
"PPOBIBLCLAICDKAFNCKHNPAIEGMGNOCFDKICHGKEHHPBHBPP",
"NBIBJBHDKEFBLHKDBCCEMEDJIOKJLMFNBBFDIILEJBOBOCHB",
"LBJBKBJDIMEBMJEGHIIPBIENLONFGODBDBBDPDMBJBLBOBHB",
"IBLCGEFAHFNIFHJEMEBFGKJJMCEEJGCFBELPCGMBKBIBLBOC",
"IBCCKNFLGPNEAGPJNEPKDDMFANJCJCNCOEGHLAAEOKLCLBNB",
"PBNKHNJOGLILCNGNHPNHACACACIFDFONJIHGKCECOPKBLBNB",
"OBLEHEAGIKCMAPGCPDCBHOACGCGCIFPNBECOPFECOPKBJBNB",
"PPGEOMMCBFHCKFLNAAMMEHHMPOEDDKGCDFBELAFCOPHDIBPP",
"PPOPOCKGNIFKIDBGEIBLOEEDBCBCNLFMLDDFFDNMOPKBIBPP",
"PPOPOPBAJAHAMCBNIGOOFIJFPAPLKDBJEAACJACGOPKBIBPP",
"PPPPFCMBIBDHHKNNJEDCLLDCEKJKGAMPBCDMODLAOPKBPPPP",
"PPPPPPFCMBPFJPFAFGCEDAGGGJHCOFLKMDCDJIJBKBPPPPPP",
"PPPPPPPPFCKPLDKJKINDGMHFNCHEDCGDBHEFFEJDPPPPPPPP",
"PPPPPPPPPPKCCBJMDENDNJIHBGNFFJPHIPOLOPPPPPPPPPPP",
"PPPPPPPPPPPPOPMIOCOJKONALAJLOPBAAHPIPPPPPPPPPPPP",
"PPPPPPPPPPPPPPPPMBMBAEECECGIOPPPPPPPPPPPPPPPPPPP"};
